<mxfile host="www.draw.io" modified="2019-12-12T01:08:32.309Z" agent="Mozilla/5.0 (Macintosh; Intel Mac OS X 10_15_1) AppleWebKit/537.36 (KHTML, like Gecko) Chrome/78.0.3904.108 Safari/537.36" etag="LJWDEFd9_iy87hbQIK0K" version="12.3.9" type="github" pages="1">
  <diagram id="2Ik594mWw5LCmnf7LACp" name="Page-1">
    <mxGraphModel dx="786" dy="469" grid="1" gridSize="10" guides="1" tooltips="1" connect="1" arrows="1" fold="1" page="1" pageScale="1" pageWidth="2339" pageHeight="3300" math="0" shadow="0">
      <root>
        <mxCell id="0"/>
        <mxCell id="1" parent="0"/>
        <UserObject label="%shortname%&lt;br&gt;&lt;i style=&quot;color: gray&quot;&gt;%name%&lt;/i&gt;&lt;br&gt;%driver%" shortname="OPRODNAS.02.06.07" name="Lisensi" driver="-" placeholders="1" id="w01vSuF_2xjrnzuFNLZF-230">
          <mxCell style="label;iwhiteSpace=wrap;html=1;rounded=1" parent="1" vertex="1">
            <mxGeometry x="2495" y="503.33333333333326" width="180" height="40" as="geometry"/>
          </mxCell>
        </UserObject>
        <UserObject label="%shortname%&lt;br&gt;&lt;i style=&quot;color: gray&quot;&gt;%name%&lt;/i&gt;&lt;br&gt;%driver%" shortname="OPRODRE1.01.01.05" name="Lisensi SL Per 1 Mbps RE1" driver="&amp;lt;BW SL&amp;gt;" placeholders="1" id="w01vSuF_2xjrnzuFNLZF-231">
          <mxCell style="label;iwhiteSpace=wrap;html=1;rounded=1" parent="1" vertex="1">
            <mxGeometry x="2105" y="1.6666666666666667" width="220" height="40" as="geometry"/>
          </mxCell>
        </UserObject>
        <UserObject label="%shortname%&lt;br&gt;&lt;i style=&quot;color: gray&quot;&gt;%name%&lt;/i&gt;&lt;br&gt;%driver%" shortname="OPRODNAS.02.03.01.06" name="Lisensi SL per 1 Mbps Nas" driver="-" placeholders="1" id="w01vSuF_2xjrnzuFNLZF-232">
          <mxCell style="label;iwhiteSpace=wrap;html=1;rounded=1" parent="1" vertex="1">
            <mxGeometry x="2480" y="574.9999999999999" width="210" height="40" as="geometry"/>
          </mxCell>
        </UserObject>
        <UserObject label="%shortname%&lt;br&gt;&lt;i style=&quot;color: gray&quot;&gt;%name%&lt;/i&gt;&lt;br&gt;%driver%" shortname="OBSC.05.02" name="LICENSI COST" driver="&amp;lt;SAD&amp;gt;" placeholders="1" id="w01vSuF_2xjrnzuFNLZF-233">
          <mxCell style="label;iwhiteSpace=wrap;html=1;rounded=1" parent="1" vertex="1">
            <mxGeometry x="1800" y="1040.8333333333328" width="150" height="40" as="geometry"/>
          </mxCell>
        </UserObject>
        <UserObject label="%shortname%&lt;br&gt;&lt;i style=&quot;color: gray&quot;&gt;%name%&lt;/i&gt;&lt;br&gt;%driver%" shortname="OPRODRE1.02.02.07" name="Lisensi BULANAN METRO BW PER 1Mbps RE1" driver="-" placeholders="1" id="w01vSuF_2xjrnzuFNLZF-234">
          <mxCell style="label;iwhiteSpace=wrap;html=1;rounded=1" parent="1" vertex="1">
            <mxGeometry x="2050" y="73.33333333333333" width="330" height="40" as="geometry"/>
          </mxCell>
        </UserObject>
        <UserObject label="%shortname%&lt;br&gt;&lt;i style=&quot;color: gray&quot;&gt;%name%&lt;/i&gt;&lt;br&gt;%driver%" shortname="OPRODRE2.01.01.05" name="Lisensi SL Per 1 Mbps RE2" driver="&amp;lt;BW SL&amp;gt;" placeholders="1" id="w01vSuF_2xjrnzuFNLZF-235">
          <mxCell style="label;iwhiteSpace=wrap;html=1;rounded=1" parent="1" vertex="1">
            <mxGeometry x="2105" y="144.99999999999997" width="220" height="40" as="geometry"/>
          </mxCell>
        </UserObject>
        <UserObject label="%shortname%&lt;br&gt;&lt;i style=&quot;color: gray&quot;&gt;%name%&lt;/i&gt;&lt;br&gt;%driver%" shortname="OPRODRE2.02.02.07" name="Lisensi BW SEN Per 1 Mbps METRO RE2" driver="-" placeholders="1" id="w01vSuF_2xjrnzuFNLZF-236">
          <mxCell style="label;iwhiteSpace=wrap;html=1;rounded=1" parent="1" vertex="1">
            <mxGeometry x="2070" y="216.66666666666666" width="290" height="40" as="geometry"/>
          </mxCell>
        </UserObject>
        <UserObject label="%shortname%&lt;br&gt;&lt;i style=&quot;color: gray&quot;&gt;%name%&lt;/i&gt;&lt;br&gt;%driver%" shortname="OPRODRE3.01.01.05" name="Lisensi SL Per 1 Mbps RE3" driver="&amp;lt;BW SL&amp;gt;" placeholders="1" id="w01vSuF_2xjrnzuFNLZF-237">
          <mxCell style="label;iwhiteSpace=wrap;html=1;rounded=1" parent="1" vertex="1">
            <mxGeometry x="2105" y="288.33333333333337" width="220" height="40" as="geometry"/>
          </mxCell>
        </UserObject>
        <UserObject label="%shortname%&lt;br&gt;&lt;i style=&quot;color: gray&quot;&gt;%name%&lt;/i&gt;&lt;br&gt;%driver%" shortname="OPRODRE3.02.02.07" name="Lisensi BW Per 1 Mbps METRO RE3" driver="-" placeholders="1" id="w01vSuF_2xjrnzuFNLZF-238">
          <mxCell style="label;iwhiteSpace=wrap;html=1;rounded=1" parent="1" vertex="1">
            <mxGeometry x="2080" y="360" width="270" height="40" as="geometry"/>
          </mxCell>
        </UserObject>
        <UserObject label="%shortname%&lt;br&gt;&lt;i style=&quot;color: gray&quot;&gt;%name%&lt;/i&gt;&lt;br&gt;%driver%" shortname="OPRODRE4.02.02.07" name="Lisensi BW Per 1 Mbps METRO RE4" driver="-" placeholders="1" id="w01vSuF_2xjrnzuFNLZF-239">
          <mxCell style="label;iwhiteSpace=wrap;html=1;rounded=1" parent="1" vertex="1">
            <mxGeometry x="2080" y="431.66666666666663" width="270" height="40" as="geometry"/>
          </mxCell>
        </UserObject>
        <UserObject label="%shortname%&lt;br&gt;&lt;i style=&quot;color: gray&quot;&gt;%name%&lt;/i&gt;&lt;br&gt;%driver%" shortname="OPRODRE4.01.01.05" name="Lisensi SL Per 1Mbps RE4" driver="&amp;lt;BW SL&amp;gt;" placeholders="1" id="w01vSuF_2xjrnzuFNLZF-240">
          <mxCell style="label;iwhiteSpace=wrap;html=1;rounded=1" parent="1" vertex="1">
            <mxGeometry x="2110" y="503.33333333333326" width="210" height="40" as="geometry"/>
          </mxCell>
        </UserObject>
        <UserObject label="%shortname%&lt;br&gt;&lt;i style=&quot;color: gray&quot;&gt;%name%&lt;/i&gt;&lt;br&gt;%driver%" shortname="OPRODRE5.01.01.05" name="Lisensi SL Per Mbps RE5" driver="&amp;lt;BW SL&amp;gt;" placeholders="1" id="w01vSuF_2xjrnzuFNLZF-241">
          <mxCell style="label;iwhiteSpace=wrap;html=1;rounded=1" parent="1" vertex="1">
            <mxGeometry x="2110" y="574.9999999999999" width="210" height="40" as="geometry"/>
          </mxCell>
        </UserObject>
        <UserObject label="%shortname%&lt;br&gt;&lt;i style=&quot;color: gray&quot;&gt;%name%&lt;/i&gt;&lt;br&gt;%driver%" shortname="OPRODRE5.02.02.07" name="Lisensi BW SEN BULANAN METRO BW RE5" driver="-" placeholders="1" id="w01vSuF_2xjrnzuFNLZF-242">
          <mxCell style="label;iwhiteSpace=wrap;html=1;rounded=1" parent="1" vertex="1">
            <mxGeometry x="2060" y="646.6666666666666" width="310" height="40" as="geometry"/>
          </mxCell>
        </UserObject>
        <UserObject label="%shortname%&lt;br&gt;&lt;i style=&quot;color: gray&quot;&gt;%name%&lt;/i&gt;&lt;br&gt;%driver%" shortname="OPRODRE6.01.01.05" name="Lisensi SL Per 1 Mbps RE6" driver="&amp;lt;BW SL&amp;gt;" placeholders="1" id="w01vSuF_2xjrnzuFNLZF-243">
          <mxCell style="label;iwhiteSpace=wrap;html=1;rounded=1" parent="1" vertex="1">
            <mxGeometry x="2105" y="718.3333333333334" width="220" height="40" as="geometry"/>
          </mxCell>
        </UserObject>
        <UserObject label="%shortname%&lt;br&gt;&lt;i style=&quot;color: gray&quot;&gt;%name%&lt;/i&gt;&lt;br&gt;%driver%" shortname="OPRODRE6.02.02.07" name="Lisensi BULANAN METRO BW PER 1Mbps RE6" driver="-" placeholders="1" id="w01vSuF_2xjrnzuFNLZF-244">
          <mxCell style="label;iwhiteSpace=wrap;html=1;rounded=1" parent="1" vertex="1">
            <mxGeometry x="2050" y="790.0000000000001" width="330" height="40" as="geometry"/>
          </mxCell>
        </UserObject>
        <UserObject label="%shortname%&lt;br&gt;&lt;i style=&quot;color: gray&quot;&gt;%name%&lt;/i&gt;&lt;br&gt;%driver%" shortname="OPRODRE7.01.01.05" name="Lisensi SL Per 1 Mbps RE7" driver="&amp;lt;BW SL&amp;gt;" placeholders="1" id="w01vSuF_2xjrnzuFNLZF-245">
          <mxCell style="label;iwhiteSpace=wrap;html=1;rounded=1" parent="1" vertex="1">
            <mxGeometry x="2105" y="861.6666666666669" width="220" height="40" as="geometry"/>
          </mxCell>
        </UserObject>
        <UserObject label="%shortname%&lt;br&gt;&lt;i style=&quot;color: gray&quot;&gt;%name%&lt;/i&gt;&lt;br&gt;%driver%" shortname="OPRODRE7.02.02.07" name="Lisensi BULANAN METRO BW PER 1Mbps RE7" driver="-" placeholders="1" id="w01vSuF_2xjrnzuFNLZF-246">
          <mxCell style="label;iwhiteSpace=wrap;html=1;rounded=1" parent="1" vertex="1">
            <mxGeometry x="2050" y="933.3333333333336" width="330" height="40" as="geometry"/>
          </mxCell>
        </UserObject>
        <UserObject label="%shortname%&lt;br&gt;&lt;i style=&quot;color: gray&quot;&gt;%name%&lt;/i&gt;&lt;br&gt;%driver%" shortname="OPRODNAS.01.01.01.01.06" name="Lisensi Split Charge" driver="-" placeholders="1" id="w01vSuF_2xjrnzuFNLZF-247">
          <mxCell style="label;iwhiteSpace=wrap;html=1;rounded=1" parent="1" vertex="1">
            <mxGeometry x="2110" y="1005.0000000000002" width="210" height="40" as="geometry"/>
          </mxCell>
        </UserObject>
        <UserObject label="%shortname%&lt;br&gt;&lt;i style=&quot;color: gray&quot;&gt;%name%&lt;/i&gt;&lt;br&gt;%driver%" shortname="OPRODNAS.01.01.03.01.06" name="Lisensi Premium Call" driver="-" placeholders="1" id="w01vSuF_2xjrnzuFNLZF-248">
          <mxCell style="label;iwhiteSpace=wrap;html=1;rounded=1" parent="1" vertex="1">
            <mxGeometry x="2110" y="1076.666666666667" width="210" height="40" as="geometry"/>
          </mxCell>
        </UserObject>
        <UserObject label="%shortname%&lt;br&gt;&lt;i style=&quot;color: gray&quot;&gt;%name%&lt;/i&gt;&lt;br&gt;%driver%" shortname="OPRODNAS.01.01.05.01.06" name="Lisensi Free Call" driver="-" placeholders="1" id="w01vSuF_2xjrnzuFNLZF-249">
          <mxCell style="label;iwhiteSpace=wrap;html=1;rounded=1" parent="1" vertex="1">
            <mxGeometry x="2110" y="1148.3333333333335" width="210" height="40" as="geometry"/>
          </mxCell>
        </UserObject>
        <UserObject label="%shortname%&lt;br&gt;&lt;i style=&quot;color: gray&quot;&gt;%name%&lt;/i&gt;&lt;br&gt;%driver%" shortname="OPRODNAS.01.01.06.01.06" name="Lisensi Uni Call" driver="-" placeholders="1" id="w01vSuF_2xjrnzuFNLZF-250">
          <mxCell style="label;iwhiteSpace=wrap;html=1;rounded=1" parent="1" vertex="1">
            <mxGeometry x="2110" y="1220" width="210" height="40" as="geometry"/>
          </mxCell>
        </UserObject>
        <UserObject label="%shortname%&lt;br&gt;&lt;i style=&quot;color: gray&quot;&gt;%name%&lt;/i&gt;&lt;br&gt;%driver%" shortname="OPRODNAS.01.02.01.01.06" name="Lisensi SLJJ" driver="-" placeholders="1" id="w01vSuF_2xjrnzuFNLZF-251">
          <mxCell style="label;iwhiteSpace=wrap;html=1;rounded=1" parent="1" vertex="1">
            <mxGeometry x="2110" y="1291.6666666666665" width="210" height="40" as="geometry"/>
          </mxCell>
        </UserObject>
        <UserObject label="%shortname%&lt;br&gt;&lt;i style=&quot;color: gray&quot;&gt;%name%&lt;/i&gt;&lt;br&gt;%driver%" shortname="OPRODNAS.01.03.01.01.06" name="Lisensi Telkom Signalling" driver="-" placeholders="1" id="w01vSuF_2xjrnzuFNLZF-252">
          <mxCell style="label;iwhiteSpace=wrap;html=1;rounded=1" parent="1" vertex="1">
            <mxGeometry x="2110" y="1363.333333333333" width="210" height="40" as="geometry"/>
          </mxCell>
        </UserObject>
        <UserObject label="%shortname%&lt;br&gt;&lt;i style=&quot;color: gray&quot;&gt;%name%&lt;/i&gt;&lt;br&gt;%driver%" shortname="OPRODNAS.01.05.01.01.05" name="Lisensi Lokal Call" driver="-" placeholders="1" id="w01vSuF_2xjrnzuFNLZF-253">
          <mxCell style="label;iwhiteSpace=wrap;html=1;rounded=1" parent="1" vertex="1">
            <mxGeometry x="2110" y="1434.9999999999995" width="210" height="40" as="geometry"/>
          </mxCell>
        </UserObject>
        <UserObject label="%shortname%&lt;br&gt;&lt;i style=&quot;color: gray&quot;&gt;%name%&lt;/i&gt;&lt;br&gt;%driver%" shortname="OPRODNAS.02.01.01.06" name="Lisensi Data Center" driver="-" placeholders="1" id="w01vSuF_2xjrnzuFNLZF-254">
          <mxCell style="label;iwhiteSpace=wrap;html=1;rounded=1" parent="1" vertex="1">
            <mxGeometry x="2115" y="1506.666666666666" width="200" height="40" as="geometry"/>
          </mxCell>
        </UserObject>
        <UserObject label="%shortname%&lt;br&gt;&lt;i style=&quot;color: gray&quot;&gt;%name%&lt;/i&gt;&lt;br&gt;%driver%" shortname="OPRODNAS.02.04.01.01.01.07" name="Lisensi ASTINET BULANAN" driver="-" placeholders="1" id="w01vSuF_2xjrnzuFNLZF-255">
          <mxCell style="label;iwhiteSpace=wrap;html=1;rounded=1" parent="1" vertex="1">
            <mxGeometry x="2100" y="1578.3333333333326" width="230" height="40" as="geometry"/>
          </mxCell>
        </UserObject>
        <UserObject label="%shortname%&lt;br&gt;&lt;i style=&quot;color: gray&quot;&gt;%name%&lt;/i&gt;&lt;br&gt;%driver%" shortname="OPRODNAS.02.04.04.01.07" name="Lisensi BULANAN IP Transit" driver="-" placeholders="1" id="w01vSuF_2xjrnzuFNLZF-256">
          <mxCell style="label;iwhiteSpace=wrap;html=1;rounded=1" parent="1" vertex="1">
            <mxGeometry x="2105" y="1649.999999999999" width="220" height="40" as="geometry"/>
          </mxCell>
        </UserObject>
        <UserObject label="%shortname%&lt;br&gt;&lt;i style=&quot;color: gray&quot;&gt;%name%&lt;/i&gt;&lt;br&gt;%driver%" shortname="OPRODNAS.02.04.05.01.08" name="Lisensi HSI per 1 Mbps" driver="-" placeholders="1" id="w01vSuF_2xjrnzuFNLZF-257">
          <mxCell style="label;iwhiteSpace=wrap;html=1;rounded=1" parent="1" vertex="1">
            <mxGeometry x="2110" y="1721.6666666666656" width="210" height="40" as="geometry"/>
          </mxCell>
        </UserObject>
        <UserObject label="%shortname%&lt;br&gt;&lt;i style=&quot;color: gray&quot;&gt;%name%&lt;/i&gt;&lt;br&gt;%driver%" shortname="OPRODNAS.02.04.08.01.08" name="Lisensi VPN IP BULANAN" driver="-" placeholders="1" id="w01vSuF_2xjrnzuFNLZF-258">
          <mxCell style="label;iwhiteSpace=wrap;html=1;rounded=1" parent="1" vertex="1">
            <mxGeometry x="2110" y="1793.3333333333321" width="210" height="40" as="geometry"/>
          </mxCell>
        </UserObject>
        <UserObject label="%shortname%&lt;br&gt;&lt;i style=&quot;color: gray&quot;&gt;%name%&lt;/i&gt;&lt;br&gt;%driver%" shortname="OPRODNAS.02.04.10.01.09" name="Lisensi WIFI" driver="-" placeholders="1" id="w01vSuF_2xjrnzuFNLZF-259">
          <mxCell style="label;iwhiteSpace=wrap;html=1;rounded=1" parent="1" vertex="1">
            <mxGeometry x="2110" y="1864.9999999999986" width="210" height="40" as="geometry"/>
          </mxCell>
        </UserObject>
        <UserObject label="%shortname%&lt;br&gt;&lt;i style=&quot;color: gray&quot;&gt;%name%&lt;/i&gt;&lt;br&gt;%driver%" shortname="OPRODNAS.03.01.05.01.06" name="Lisensi Sewa Transponder Telkom" driver="-" placeholders="1" id="w01vSuF_2xjrnzuFNLZF-260">
          <mxCell style="label;iwhiteSpace=wrap;html=1;rounded=1" parent="1" vertex="1">
            <mxGeometry x="2085" y="1936.6666666666652" width="260" height="40" as="geometry"/>
          </mxCell>
        </UserObject>
        <UserObject label="%shortname%&lt;br&gt;&lt;i style=&quot;color: gray&quot;&gt;%name%&lt;/i&gt;&lt;br&gt;%driver%" shortname="OPRODNAS.03.01.02.01.07" name="Lisensi TV UpLink Telkom" driver="-" placeholders="1" id="w01vSuF_2xjrnzuFNLZF-261">
          <mxCell style="label;iwhiteSpace=wrap;html=1;rounded=1" parent="1" vertex="1">
            <mxGeometry x="2110" y="2008.3333333333317" width="210" height="40" as="geometry"/>
          </mxCell>
        </UserObject>
        <UserObject label="%shortname%&lt;br&gt;&lt;i style=&quot;color: gray&quot;&gt;%name%&lt;/i&gt;&lt;br&gt;%driver%" shortname="OPRODNAS.02.05.09" name="Lisensi IPTV" driver="-" placeholders="1" id="w01vSuF_2xjrnzuFNLZF-262">
          <mxCell style="label;iwhiteSpace=wrap;html=1;rounded=1" parent="1" vertex="1">
            <mxGeometry x="2125" y="2079.999999999998" width="180" height="40" as="geometry"/>
          </mxCell>
        </UserObject>
        <UserObject label="%shortname%&lt;br&gt;&lt;i style=&quot;color: gray&quot;&gt;%name%&lt;/i&gt;&lt;br&gt;%driver%" shortname="OACTTEL.06.01" name="Licensi Cost" driver="&amp;lt;EVENLY_ASSIGNED&amp;gt;" placeholders="1" id="w01vSuF_2xjrnzuFNLZF-263">
          <mxCell style="label;iwhiteSpace=wrap;html=1;rounded=1" parent="1" vertex="1">
            <mxGeometry x="1510" y="1040.8333333333328" width="190" height="40" as="geometry"/>
          </mxCell>
        </UserObject>
        <UserObject label="%shortname%&lt;br&gt;&lt;i style=&quot;color: gray&quot;&gt;%name%&lt;/i&gt;&lt;br&gt;%driver%" shortname="1000RE1-03.02.28" name="Beban Hak Penyelenggaraan Jastel" driver="&amp;lt;EVENLY_ASSIGNED&amp;gt;" placeholders="1" id="w01vSuF_2xjrnzuFNLZF-264">
          <mxCell style="label;iwhiteSpace=wrap;html=1;rounded=1" parent="1" vertex="1">
            <mxGeometry x="1135" y="288.3333333333331" width="260" height="40" as="geometry"/>
          </mxCell>
        </UserObject>
        <UserObject label="%shortname%&lt;br&gt;&lt;i style=&quot;color: gray&quot;&gt;%name%&lt;/i&gt;&lt;br&gt;%driver%" shortname="1000RE1-51365001/E" name="HAK PENYELENGGARAAN JASTEL" driver="CostElement" placeholders="1" id="w01vSuF_2xjrnzuFNLZF-265">
          <mxCell style="label;iwhiteSpace=wrap;html=1;rounded=1" parent="1" vertex="1">
            <mxGeometry x="730" y="37.50000000000015" width="270" height="40" as="geometry"/>
          </mxCell>
        </UserObject>
        <UserObject label="%shortname%&lt;br&gt;&lt;i style=&quot;color: gray&quot;&gt;%name%&lt;/i&gt;&lt;br&gt;%driver%" shortname="1000RE1-03.02.29" name="Beban Hak Penyelenggaraan Frequency" driver="&amp;lt;EVENLY_ASSIGNED&amp;gt;" placeholders="1" id="w01vSuF_2xjrnzuFNLZF-266">
          <mxCell style="label;iwhiteSpace=wrap;html=1;rounded=1" parent="1" vertex="1">
            <mxGeometry x="1120" y="359.9999999999997" width="290" height="40" as="geometry"/>
          </mxCell>
        </UserObject>
        <UserObject label="%shortname%&lt;br&gt;&lt;i style=&quot;color: gray&quot;&gt;%name%&lt;/i&gt;&lt;br&gt;%driver%" shortname="1000RE1-51365002/E" name="HAK PENYELENGGARAAN FREQUENSI" driver="CostElement" placeholders="1" id="w01vSuF_2xjrnzuFNLZF-267">
          <mxCell style="label;iwhiteSpace=wrap;html=1;rounded=1" parent="1" vertex="1">
            <mxGeometry x="720" y="109.16666666666683" width="290" height="40" as="geometry"/>
          </mxCell>
        </UserObject>
        <UserObject label="%shortname%&lt;br&gt;&lt;i style=&quot;color: gray&quot;&gt;%name%&lt;/i&gt;&lt;br&gt;%driver%" shortname="1000RE2-03.02.28" name="Beban Hak Penyelenggaraan Jastel" driver="&amp;lt;EVENLY_ASSIGNED&amp;gt;" placeholders="1" id="w01vSuF_2xjrnzuFNLZF-268">
          <mxCell style="label;iwhiteSpace=wrap;html=1;rounded=1" parent="1" vertex="1">
            <mxGeometry x="1135" y="431.66666666666634" width="260" height="40" as="geometry"/>
          </mxCell>
        </UserObject>
        <UserObject label="%shortname%&lt;br&gt;&lt;i style=&quot;color: gray&quot;&gt;%name%&lt;/i&gt;&lt;br&gt;%driver%" shortname="1000RE2-51365001/E" name="HAK PENYELENGGARAAN JASTEL" driver="CostElement" placeholders="1" id="w01vSuF_2xjrnzuFNLZF-269">
          <mxCell style="label;iwhiteSpace=wrap;html=1;rounded=1" parent="1" vertex="1">
            <mxGeometry x="730" y="180.83333333333348" width="270" height="40" as="geometry"/>
          </mxCell>
        </UserObject>
        <UserObject label="%shortname%&lt;br&gt;&lt;i style=&quot;color: gray&quot;&gt;%name%&lt;/i&gt;&lt;br&gt;%driver%" shortname="1000RE2-03.02.29" name="Beban Hak Penyelenggaraan Frequency" driver="&amp;lt;EVENLY_ASSIGNED&amp;gt;" placeholders="1" id="w01vSuF_2xjrnzuFNLZF-270">
          <mxCell style="label;iwhiteSpace=wrap;html=1;rounded=1" parent="1" vertex="1">
            <mxGeometry x="1120" y="503.33333333333303" width="290" height="40" as="geometry"/>
          </mxCell>
        </UserObject>
        <UserObject label="%shortname%&lt;br&gt;&lt;i style=&quot;color: gray&quot;&gt;%name%&lt;/i&gt;&lt;br&gt;%driver%" shortname="1000RE2-51365002/E" name="HAK PENYELENGGARAAN FREQUENSI" driver="CostElement" placeholders="1" id="w01vSuF_2xjrnzuFNLZF-271">
          <mxCell style="label;iwhiteSpace=wrap;html=1;rounded=1" parent="1" vertex="1">
            <mxGeometry x="720" y="252.50000000000017" width="290" height="40" as="geometry"/>
          </mxCell>
        </UserObject>
        <UserObject label="%shortname%&lt;br&gt;&lt;i style=&quot;color: gray&quot;&gt;%name%&lt;/i&gt;&lt;br&gt;%driver%" shortname="1000REBor-03.02.28" name="Beban Hak Penyelenggaraan Jastel" driver="&amp;lt;EVENLY_ASSIGNED&amp;gt;" placeholders="1" id="w01vSuF_2xjrnzuFNLZF-272">
          <mxCell style="label;iwhiteSpace=wrap;html=1;rounded=1" parent="1" vertex="1">
            <mxGeometry x="1135" y="574.9999999999997" width="260" height="40" as="geometry"/>
          </mxCell>
        </UserObject>
        <UserObject label="%shortname%&lt;br&gt;&lt;i style=&quot;color: gray&quot;&gt;%name%&lt;/i&gt;&lt;br&gt;%driver%" shortname="1000REBor-51365001/E" name="HAK PENYELENGGARAAN JASTEL" driver="CostElement" placeholders="1" id="w01vSuF_2xjrnzuFNLZF-273">
          <mxCell style="label;iwhiteSpace=wrap;html=1;rounded=1" parent="1" vertex="1">
            <mxGeometry x="730" y="324.16666666666686" width="270" height="40" as="geometry"/>
          </mxCell>
        </UserObject>
        <UserObject label="%shortname%&lt;br&gt;&lt;i style=&quot;color: gray&quot;&gt;%name%&lt;/i&gt;&lt;br&gt;%driver%" shortname="1000REKti-03.02.28" name="Beban Hak Penyelenggaraan Jastel" driver="&amp;lt;EVENLY_ASSIGNED&amp;gt;" placeholders="1" id="w01vSuF_2xjrnzuFNLZF-274">
          <mxCell style="label;iwhiteSpace=wrap;html=1;rounded=1" parent="1" vertex="1">
            <mxGeometry x="1135" y="646.6666666666664" width="260" height="40" as="geometry"/>
          </mxCell>
        </UserObject>
        <UserObject label="%shortname%&lt;br&gt;&lt;i style=&quot;color: gray&quot;&gt;%name%&lt;/i&gt;&lt;br&gt;%driver%" shortname="1000REKti-51365001/E" name="HAK PENYELENGGARAAN JASTEL" driver="CostElement" placeholders="1" id="w01vSuF_2xjrnzuFNLZF-275">
          <mxCell style="label;iwhiteSpace=wrap;html=1;rounded=1" parent="1" vertex="1">
            <mxGeometry x="730" y="395.8333333333335" width="270" height="40" as="geometry"/>
          </mxCell>
        </UserObject>
        <UserObject label="%shortname%&lt;br&gt;&lt;i style=&quot;color: gray&quot;&gt;%name%&lt;/i&gt;&lt;br&gt;%driver%" shortname="1000RE3-03.02.28" name="Beban Hak Penyelenggaraan Jastel" driver="&amp;lt;EVENLY_ASSIGNED&amp;gt;" placeholders="1" id="w01vSuF_2xjrnzuFNLZF-276">
          <mxCell style="label;iwhiteSpace=wrap;html=1;rounded=1" parent="1" vertex="1">
            <mxGeometry x="1135" y="718.3333333333331" width="260" height="40" as="geometry"/>
          </mxCell>
        </UserObject>
        <UserObject label="%shortname%&lt;br&gt;&lt;i style=&quot;color: gray&quot;&gt;%name%&lt;/i&gt;&lt;br&gt;%driver%" shortname="1000RE3-51365001/E" name="HAK PENYELENGGARAAN JASTEL" driver="CostElement" placeholders="1" id="w01vSuF_2xjrnzuFNLZF-277">
          <mxCell style="label;iwhiteSpace=wrap;html=1;rounded=1" parent="1" vertex="1">
            <mxGeometry x="730" y="467.5000000000001" width="270" height="40" as="geometry"/>
          </mxCell>
        </UserObject>
        <UserObject label="%shortname%&lt;br&gt;&lt;i style=&quot;color: gray&quot;&gt;%name%&lt;/i&gt;&lt;br&gt;%driver%" shortname="1000RE4-03.02.28" name="Beban Hak Penyelenggaraan Jastel" driver="&amp;lt;EVENLY_ASSIGNED&amp;gt;" placeholders="1" id="w01vSuF_2xjrnzuFNLZF-278">
          <mxCell style="label;iwhiteSpace=wrap;html=1;rounded=1" parent="1" vertex="1">
            <mxGeometry x="1135" y="789.9999999999999" width="260" height="40" as="geometry"/>
          </mxCell>
        </UserObject>
        <UserObject label="%shortname%&lt;br&gt;&lt;i style=&quot;color: gray&quot;&gt;%name%&lt;/i&gt;&lt;br&gt;%driver%" shortname="1000RE4-51365001/E" name="HAK PENYELENGGARAAN JASTEL" driver="CostElement" placeholders="1" id="w01vSuF_2xjrnzuFNLZF-279">
          <mxCell style="label;iwhiteSpace=wrap;html=1;rounded=1" parent="1" vertex="1">
            <mxGeometry x="730" y="539.1666666666666" width="270" height="40" as="geometry"/>
          </mxCell>
        </UserObject>
        <UserObject label="%shortname%&lt;br&gt;&lt;i style=&quot;color: gray&quot;&gt;%name%&lt;/i&gt;&lt;br&gt;%driver%" shortname="1000RE5-03.02.28" name="Beban Hak Penyelenggaraan Jastel" driver="&amp;lt;EVENLY_ASSIGNED&amp;gt;" placeholders="1" id="w01vSuF_2xjrnzuFNLZF-280">
          <mxCell style="label;iwhiteSpace=wrap;html=1;rounded=1" parent="1" vertex="1">
            <mxGeometry x="1135" y="861.6666666666666" width="260" height="40" as="geometry"/>
          </mxCell>
        </UserObject>
        <UserObject label="%shortname%&lt;br&gt;&lt;i style=&quot;color: gray&quot;&gt;%name%&lt;/i&gt;&lt;br&gt;%driver%" shortname="1000RE5-51365001/E" name="HAK PENYELENGGARAAN JASTEL" driver="CostElement" placeholders="1" id="w01vSuF_2xjrnzuFNLZF-281">
          <mxCell style="label;iwhiteSpace=wrap;html=1;rounded=1" parent="1" vertex="1">
            <mxGeometry x="730" y="610.8333333333334" width="270" height="40" as="geometry"/>
          </mxCell>
        </UserObject>
        <UserObject label="%shortname%&lt;br&gt;&lt;i style=&quot;color: gray&quot;&gt;%name%&lt;/i&gt;&lt;br&gt;%driver%" shortname="8101-03.02.28" name="Beban Hak Penyelenggaraan Jastel" driver="&amp;lt;EVENLY_ASSIGNED&amp;gt;" placeholders="1" id="w01vSuF_2xjrnzuFNLZF-282">
          <mxCell style="label;iwhiteSpace=wrap;html=1;rounded=1" parent="1" vertex="1">
            <mxGeometry x="1135" y="933.3333333333334" width="260" height="40" as="geometry"/>
          </mxCell>
        </UserObject>
        <UserObject label="%shortname%&lt;br&gt;&lt;i style=&quot;color: gray&quot;&gt;%name%&lt;/i&gt;&lt;br&gt;%driver%" shortname="8101-51365001/E" name="HAK PENYELENGGARAAN JASTEL" driver="CostElement" placeholders="1" id="w01vSuF_2xjrnzuFNLZF-283">
          <mxCell style="label;iwhiteSpace=wrap;html=1;rounded=1" parent="1" vertex="1">
            <mxGeometry x="730" y="682.5000000000001" width="270" height="40" as="geometry"/>
          </mxCell>
        </UserObject>
        <UserObject label="%shortname%&lt;br&gt;&lt;i style=&quot;color: gray&quot;&gt;%name%&lt;/i&gt;&lt;br&gt;%driver%" shortname="10001.03.09" name="Licensing expense" driver="&amp;lt;EVENLY_ASSIGNED&amp;gt;" placeholders="1" id="w01vSuF_2xjrnzuFNLZF-284">
          <mxCell style="label;iwhiteSpace=wrap;html=1;rounded=1" parent="1" vertex="1">
            <mxGeometry x="1170" y="1005" width="190" height="40" as="geometry"/>
          </mxCell>
        </UserObject>
        <UserObject label="%shortname%&lt;br&gt;&lt;i style=&quot;color: gray&quot;&gt;%name%&lt;/i&gt;&lt;br&gt;%driver%" shortname="10001-51367020/E" name="Licensing expense" driver="CostElement" placeholders="1" id="w01vSuF_2xjrnzuFNLZF-285">
          <mxCell style="label;iwhiteSpace=wrap;html=1;rounded=1" parent="1" vertex="1">
            <mxGeometry x="780" y="754.1666666666669" width="170" height="40" as="geometry"/>
          </mxCell>
        </UserObject>
        <UserObject label="%shortname%&lt;br&gt;&lt;i style=&quot;color: gray&quot;&gt;%name%&lt;/i&gt;&lt;br&gt;%driver%" shortname="10001.03.13" name="Beban Hak Penyelenggaraan Jastel" driver="&amp;lt;EVENLY_ASSIGNED&amp;gt;" placeholders="1" id="w01vSuF_2xjrnzuFNLZF-286">
          <mxCell style="label;iwhiteSpace=wrap;html=1;rounded=1" parent="1" vertex="1">
            <mxGeometry x="1135" y="1076.6666666666667" width="260" height="40" as="geometry"/>
          </mxCell>
        </UserObject>
        <UserObject label="%shortname%&lt;br&gt;&lt;i style=&quot;color: gray&quot;&gt;%name%&lt;/i&gt;&lt;br&gt;%driver%" shortname="10001-51365001/E" name="Beban Hak Penyelenggaraan Jastel" driver="CostElement" placeholders="1" id="w01vSuF_2xjrnzuFNLZF-287">
          <mxCell style="label;iwhiteSpace=wrap;html=1;rounded=1" parent="1" vertex="1">
            <mxGeometry x="735" y="825.8333333333336" width="260" height="40" as="geometry"/>
          </mxCell>
        </UserObject>
        <UserObject label="%shortname%&lt;br&gt;&lt;i style=&quot;color: gray&quot;&gt;%name%&lt;/i&gt;&lt;br&gt;%driver%" shortname="10005.03.07" name="Beban Hak Penyelenggaraan Jastel" driver="&amp;lt;EVENLY_ASSIGNED&amp;gt;" placeholders="1" id="w01vSuF_2xjrnzuFNLZF-288">
          <mxCell style="label;iwhiteSpace=wrap;html=1;rounded=1" parent="1" vertex="1">
            <mxGeometry x="1135" y="1148.3333333333333" width="260" height="40" as="geometry"/>
          </mxCell>
        </UserObject>
        <UserObject label="%shortname%&lt;br&gt;&lt;i style=&quot;color: gray&quot;&gt;%name%&lt;/i&gt;&lt;br&gt;%driver%" shortname="10005-51365001/E" name="Beban Hak Penyelenggaraan Jastel" driver="CostElement" placeholders="1" id="w01vSuF_2xjrnzuFNLZF-289">
          <mxCell style="label;iwhiteSpace=wrap;html=1;rounded=1" parent="1" vertex="1">
            <mxGeometry x="735" y="897.5000000000003" width="260" height="40" as="geometry"/>
          </mxCell>
        </UserObject>
        <UserObject label="%shortname%&lt;br&gt;&lt;i style=&quot;color: gray&quot;&gt;%name%&lt;/i&gt;&lt;br&gt;%driver%" shortname="10005.04.13" name="Beban Hak Penyelenggaraan Frequency" driver="&amp;lt;EVENLY_ASSIGNED&amp;gt;" placeholders="1" id="w01vSuF_2xjrnzuFNLZF-290">
          <mxCell style="label;iwhiteSpace=wrap;html=1;rounded=1" parent="1" vertex="1">
            <mxGeometry x="1120" y="1219.9999999999998" width="290" height="40" as="geometry"/>
          </mxCell>
        </UserObject>
        <UserObject label="%shortname%&lt;br&gt;&lt;i style=&quot;color: gray&quot;&gt;%name%&lt;/i&gt;&lt;br&gt;%driver%" shortname="10005-51365002/E" name="Beban Hak Penyelenggaraan Frequency" driver="CostElement" placeholders="1" id="w01vSuF_2xjrnzuFNLZF-291">
          <mxCell style="label;iwhiteSpace=wrap;html=1;rounded=1" parent="1" vertex="1">
            <mxGeometry x="720" y="969.1666666666671" width="290" height="40" as="geometry"/>
          </mxCell>
        </UserObject>
        <UserObject label="%shortname%&lt;br&gt;&lt;i style=&quot;color: gray&quot;&gt;%name%&lt;/i&gt;&lt;br&gt;%driver%" shortname="10006.01.03.01" name="Beban hak Penyelenggaraan jastel" driver="&amp;lt;EVENLY_ASSIGNED&amp;gt;" placeholders="1" id="w01vSuF_2xjrnzuFNLZF-292">
          <mxCell style="label;iwhiteSpace=wrap;html=1;rounded=1" parent="1" vertex="1">
            <mxGeometry x="1135" y="1291.6666666666663" width="260" height="40" as="geometry"/>
          </mxCell>
        </UserObject>
        <UserObject label="%shortname%&lt;br&gt;&lt;i style=&quot;color: gray&quot;&gt;%name%&lt;/i&gt;&lt;br&gt;%driver%" shortname="10006.01-51365001/E" name="Beban hak Penyelenggaraan jastel" driver="CostElement" placeholders="1" id="w01vSuF_2xjrnzuFNLZF-293">
          <mxCell style="label;iwhiteSpace=wrap;html=1;rounded=1" parent="1" vertex="1">
            <mxGeometry x="735" y="1040.833333333334" width="260" height="40" as="geometry"/>
          </mxCell>
        </UserObject>
        <UserObject label="%shortname%&lt;br&gt;&lt;i style=&quot;color: gray&quot;&gt;%name%&lt;/i&gt;&lt;br&gt;%driver%" shortname="4001-03.02.20" name="HAK PENYELENGGARAAN JASTEL" driver="&amp;lt;EVENLY_ASSIGNED&amp;gt;" placeholders="1" id="w01vSuF_2xjrnzuFNLZF-294">
          <mxCell style="label;iwhiteSpace=wrap;html=1;rounded=1" parent="1" vertex="1">
            <mxGeometry x="1130" y="1363.3333333333328" width="270" height="40" as="geometry"/>
          </mxCell>
        </UserObject>
        <UserObject label="%shortname%&lt;br&gt;&lt;i style=&quot;color: gray&quot;&gt;%name%&lt;/i&gt;&lt;br&gt;%driver%" shortname="4000-51365001/E" name="HAK PENYELENGGARAAN JASTEL" driver="CostElement" placeholders="1" id="w01vSuF_2xjrnzuFNLZF-295">
          <mxCell style="label;iwhiteSpace=wrap;html=1;rounded=1" parent="1" vertex="1">
            <mxGeometry x="730" y="1112.5000000000005" width="270" height="40" as="geometry"/>
          </mxCell>
        </UserObject>
        <UserObject label="%shortname%&lt;br&gt;&lt;i style=&quot;color: gray&quot;&gt;%name%&lt;/i&gt;&lt;br&gt;%driver%" shortname="4000-51365011/E" name="BEBAN KONTRIBUSI USO" driver="CostElement" placeholders="1" id="w01vSuF_2xjrnzuFNLZF-296">
          <mxCell style="label;iwhiteSpace=wrap;html=1;rounded=1" parent="1" vertex="1">
            <mxGeometry x="760" y="1184.166666666667" width="210" height="40" as="geometry"/>
          </mxCell>
        </UserObject>
        <UserObject label="%shortname%&lt;br&gt;&lt;i style=&quot;color: gray&quot;&gt;%name%&lt;/i&gt;&lt;br&gt;%driver%" shortname="7101-03.02.28" name="Beban Hak Penyelenggaraan Jastel" driver="&amp;lt;EVENLY_ASSIGNED&amp;gt;" placeholders="1" id="w01vSuF_2xjrnzuFNLZF-297">
          <mxCell style="label;iwhiteSpace=wrap;html=1;rounded=1" parent="1" vertex="1">
            <mxGeometry x="735" y="1255.8333333333335" width="260" height="40" as="geometry"/>
          </mxCell>
        </UserObject>
        <UserObject label="%shortname%&lt;br&gt;&lt;i style=&quot;color: gray&quot;&gt;%name%&lt;/i&gt;&lt;br&gt;%driver%" shortname="7101-51365001/E" name="HAK PENYELENGGARAAN JASTEL" driver="CostElement" placeholders="1" id="w01vSuF_2xjrnzuFNLZF-298">
          <mxCell style="label;iwhiteSpace=wrap;html=1;rounded=1" parent="1" vertex="1">
            <mxGeometry x="330" y="610.8333333333325" width="270" height="40" as="geometry"/>
          </mxCell>
        </UserObject>
        <UserObject label="%shortname%&lt;br&gt;&lt;i style=&quot;color: gray&quot;&gt;%name%&lt;/i&gt;&lt;br&gt;%driver%" shortname="4001-03.02.21" name="HAK PENYELENGGARAAN FREQUENSI" driver="&amp;lt;EVENLY_ASSIGNED&amp;gt;" placeholders="1" id="w01vSuF_2xjrnzuFNLZF-299">
          <mxCell style="label;iwhiteSpace=wrap;html=1;rounded=1" parent="1" vertex="1">
            <mxGeometry x="1120" y="1434.9999999999993" width="290" height="40" as="geometry"/>
          </mxCell>
        </UserObject>
        <UserObject label="%shortname%&lt;br&gt;&lt;i style=&quot;color: gray&quot;&gt;%name%&lt;/i&gt;&lt;br&gt;%driver%" shortname="4000-51365002/E" name="HAK PENYELENGGARAAN FREQUENSI" driver="CostElement" placeholders="1" id="w01vSuF_2xjrnzuFNLZF-300">
          <mxCell style="label;iwhiteSpace=wrap;html=1;rounded=1" parent="1" vertex="1">
            <mxGeometry x="720" y="1327.5" width="290" height="40" as="geometry"/>
          </mxCell>
        </UserObject>
        <UserObject label="%shortname%&lt;br&gt;&lt;i style=&quot;color: gray&quot;&gt;%name%&lt;/i&gt;&lt;br&gt;%driver%" shortname="7101-03.02.29" name="Beban Hak Penyelenggaraan Frequency" driver="&amp;lt;EVENLY_ASSIGNED&amp;gt;" placeholders="1" id="w01vSuF_2xjrnzuFNLZF-301">
          <mxCell style="label;iwhiteSpace=wrap;html=1;rounded=1" parent="1" vertex="1">
            <mxGeometry x="720" y="1399.1666666666665" width="290" height="40" as="geometry"/>
          </mxCell>
        </UserObject>
        <UserObject label="%shortname%&lt;br&gt;&lt;i style=&quot;color: gray&quot;&gt;%name%&lt;/i&gt;&lt;br&gt;%driver%" shortname="7101-51365002/E" name="HAK PENYELENGGARAAN FREQUENSI" driver="CostElement" placeholders="1" id="w01vSuF_2xjrnzuFNLZF-302">
          <mxCell style="label;iwhiteSpace=wrap;html=1;rounded=1" parent="1" vertex="1">
            <mxGeometry x="320" y="682.4999999999992" width="290" height="40" as="geometry"/>
          </mxCell>
        </UserObject>
        <UserObject label="%shortname%&lt;br&gt;&lt;i style=&quot;color: gray&quot;&gt;%name%&lt;/i&gt;&lt;br&gt;%driver%" shortname="4001-04.24" name="Beban Amortisasi Lisensi BWA" driver="&amp;lt;EVENLY_ASSIGNED&amp;gt;" placeholders="1" id="w01vSuF_2xjrnzuFNLZF-303">
          <mxCell style="label;iwhiteSpace=wrap;html=1;rounded=1" parent="1" vertex="1">
            <mxGeometry x="1145" y="1506.6666666666658" width="240" height="40" as="geometry"/>
          </mxCell>
        </UserObject>
        <UserObject label="%shortname%&lt;br&gt;&lt;i style=&quot;color: gray&quot;&gt;%name%&lt;/i&gt;&lt;br&gt;%driver%" shortname="4000-51503022/E" name="Beban Amortisasi Lisensi BWA" driver="CostElement" placeholders="1" id="w01vSuF_2xjrnzuFNLZF-304">
          <mxCell style="label;iwhiteSpace=wrap;html=1;rounded=1" parent="1" vertex="1">
            <mxGeometry x="745" y="1470.833333333333" width="240" height="40" as="geometry"/>
          </mxCell>
        </UserObject>
        <UserObject label="%shortname%&lt;br&gt;&lt;i style=&quot;color: gray&quot;&gt;%name%&lt;/i&gt;&lt;br&gt;%driver%" shortname="9111-03.02.28" name="Beban Hak Penyelenggaraan Jastel" driver="&amp;lt;EVENLY_ASSIGNED&amp;gt;" placeholders="1" id="w01vSuF_2xjrnzuFNLZF-305">
          <mxCell style="label;iwhiteSpace=wrap;html=1;rounded=1" parent="1" vertex="1">
            <mxGeometry x="1135" y="1578.3333333333323" width="260" height="40" as="geometry"/>
          </mxCell>
        </UserObject>
        <UserObject label="%shortname%&lt;br&gt;&lt;i style=&quot;color: gray&quot;&gt;%name%&lt;/i&gt;&lt;br&gt;%driver%" shortname="9111-51365001/E" name="HAK PENYELENGGARAAN JASTEL" driver="CostElement" placeholders="1" id="w01vSuF_2xjrnzuFNLZF-306">
          <mxCell style="label;iwhiteSpace=wrap;html=1;rounded=1" parent="1" vertex="1">
            <mxGeometry x="730" y="1542.4999999999995" width="270" height="40" as="geometry"/>
          </mxCell>
        </UserObject>
        <UserObject label="%shortname%&lt;br&gt;&lt;i style=&quot;color: gray&quot;&gt;%name%&lt;/i&gt;&lt;br&gt;%driver%" shortname="9000-03.02.28" name="Beban Hak Penyelenggaraan Jastel" driver="&amp;lt;EVENLY_ASSIGNED&amp;gt;" placeholders="1" id="w01vSuF_2xjrnzuFNLZF-307">
          <mxCell style="label;iwhiteSpace=wrap;html=1;rounded=1" parent="1" vertex="1">
            <mxGeometry x="1135" y="1649.9999999999989" width="260" height="40" as="geometry"/>
          </mxCell>
        </UserObject>
        <UserObject label="%shortname%&lt;br&gt;&lt;i style=&quot;color: gray&quot;&gt;%name%&lt;/i&gt;&lt;br&gt;%driver%" shortname="9000-51365001/E" name="HAK PENYELENGGARAAN JASTEL" driver="CostElement" placeholders="1" id="w01vSuF_2xjrnzuFNLZF-308">
          <mxCell style="label;iwhiteSpace=wrap;html=1;rounded=1" parent="1" vertex="1">
            <mxGeometry x="730" y="1614.166666666666" width="270" height="40" as="geometry"/>
          </mxCell>
        </UserObject>
        <UserObject label="%shortname%&lt;br&gt;&lt;i style=&quot;color: gray&quot;&gt;%name%&lt;/i&gt;&lt;br&gt;%driver%" shortname="2222-03.02.28" name="Beban Hak Penyelenggaraan Jastel" driver="&amp;lt;EVENLY_ASSIGNED&amp;gt;" placeholders="1" id="w01vSuF_2xjrnzuFNLZF-309">
          <mxCell style="label;iwhiteSpace=wrap;html=1;rounded=1" parent="1" vertex="1">
            <mxGeometry x="1135" y="1721.6666666666654" width="260" height="40" as="geometry"/>
          </mxCell>
        </UserObject>
        <UserObject label="%shortname%&lt;br&gt;&lt;i style=&quot;color: gray&quot;&gt;%name%&lt;/i&gt;&lt;br&gt;%driver%" shortname="2222-51365001/E" name="HAK PENYELENGGARAAN JASTEL" driver="CostElement" placeholders="1" id="w01vSuF_2xjrnzuFNLZF-310">
          <mxCell style="label;iwhiteSpace=wrap;html=1;rounded=1" parent="1" vertex="1">
            <mxGeometry x="730" y="1685.8333333333326" width="270" height="40" as="geometry"/>
          </mxCell>
        </UserObject>
        <UserObject label="%shortname%&lt;br&gt;&lt;i style=&quot;color: gray&quot;&gt;%name%&lt;/i&gt;&lt;br&gt;%driver%" shortname="2222-51365009/E" name="BEBAN PELAK CALL CENTER INFOMEDIA" driver="CostElement" placeholders="1" id="w01vSuF_2xjrnzuFNLZF-311">
          <mxCell style="label;iwhiteSpace=wrap;html=1;rounded=1" parent="1" vertex="1">
            <mxGeometry x="710" y="1757.499999999999" width="310" height="40" as="geometry"/>
          </mxCell>
        </UserObject>
        <UserObject label="%shortname%&lt;br&gt;&lt;i style=&quot;color: gray&quot;&gt;%name%&lt;/i&gt;&lt;br&gt;%driver%" shortname="2222-51365011/E" name="BEBAN KONTRIBUSI USO" driver="CostElement" placeholders="1" id="w01vSuF_2xjrnzuFNLZF-312">
          <mxCell style="label;iwhiteSpace=wrap;html=1;rounded=1" parent="1" vertex="1">
            <mxGeometry x="760" y="1829.1666666666656" width="210" height="40" as="geometry"/>
          </mxCell>
        </UserObject>
        <UserObject label="%shortname%&lt;br&gt;&lt;i style=&quot;color: gray&quot;&gt;%name%&lt;/i&gt;&lt;br&gt;%driver%" shortname="OPASS.08.02" name="Beban Lisensi" driver="&amp;lt;Revenue&amp;gt;" placeholders="1" id="w01vSuF_2xjrnzuFNLZF-313">
          <mxCell style="label;iwhiteSpace=wrap;html=1;rounded=1" parent="1" vertex="1">
            <mxGeometry x="1195" y="1793.333333333332" width="140" height="40" as="geometry"/>
          </mxCell>
        </UserObject>
        <UserObject label="%shortname%&lt;br&gt;&lt;i style=&quot;color: gray&quot;&gt;%name%&lt;/i&gt;&lt;br&gt;%driver%" shortname="10004.03.04.04" name="Beban Perubahan Kebijakan" driver="&amp;lt;EVENLY_ASSIGNED&amp;gt;" placeholders="1" id="w01vSuF_2xjrnzuFNLZF-314">
          <mxCell style="label;iwhiteSpace=wrap;html=1;rounded=1" parent="1" vertex="1">
            <mxGeometry x="755" y="1900.8333333333321" width="220" height="40" as="geometry"/>
          </mxCell>
        </UserObject>
        <UserObject label="%shortname%&lt;br&gt;&lt;i style=&quot;color: gray&quot;&gt;%name%&lt;/i&gt;&lt;br&gt;%driver%" shortname="10004.03-51512011/E" name="Beban Perubahan Kebijakan" driver="CostElement" placeholders="1" id="w01vSuF_2xjrnzuFNLZF-315">
          <mxCell style="label;iwhiteSpace=wrap;html=1;rounded=1" parent="1" vertex="1">
            <mxGeometry x="355" y="754.166666666666" width="220" height="40" as="geometry"/>
          </mxCell>
        </UserObject>
        <UserObject label="%shortname%&lt;br&gt;&lt;i style=&quot;color: gray&quot;&gt;%name%&lt;/i&gt;&lt;br&gt;%driver%" shortname="10010.03.01.02" name="BHP Jastel" driver="&amp;lt;EVENLY_ASSIGNED&amp;gt;" placeholders="1" id="w01vSuF_2xjrnzuFNLZF-316">
          <mxCell style="label;iwhiteSpace=wrap;html=1;rounded=1" parent="1" vertex="1">
            <mxGeometry x="770" y="1972.4999999999986" width="190" height="40" as="geometry"/>
          </mxCell>
        </UserObject>
        <UserObject label="%shortname%&lt;br&gt;&lt;i style=&quot;color: gray&quot;&gt;%name%&lt;/i&gt;&lt;br&gt;%driver%" shortname="10004.03.02" name="BHP Jastel" driver="&amp;lt;EVENLY_ASSIGNED&amp;gt;" placeholders="1" id="w01vSuF_2xjrnzuFNLZF-317">
          <mxCell style="label;iwhiteSpace=wrap;html=1;rounded=1" parent="1" vertex="1">
            <mxGeometry x="370" y="825.8333333333327" width="190" height="40" as="geometry"/>
          </mxCell>
        </UserObject>
        <UserObject label="%shortname%&lt;br&gt;&lt;i style=&quot;color: gray&quot;&gt;%name%&lt;/i&gt;&lt;br&gt;%driver%" shortname="10004.01-51365001/E" name="BHP Jastel" driver="CostElement" placeholders="1" id="w01vSuF_2xjrnzuFNLZF-318">
          <mxCell style="label;iwhiteSpace=wrap;html=1;rounded=1" parent="1" vertex="1">
            <mxGeometry x="20" y="682.4999999999992" width="180" height="40" as="geometry"/>
          </mxCell>
        </UserObject>
        <UserObject label="%shortname%&lt;br&gt;&lt;i style=&quot;color: gray&quot;&gt;%name%&lt;/i&gt;&lt;br&gt;%driver%" shortname="10004.01-51512011/E" name="Beban Perubahan Regulasi" driver="CostElement" placeholders="1" id="w01vSuF_2xjrnzuFNLZF-319">
          <mxCell style="label;iwhiteSpace=wrap;html=1;rounded=1" parent="1" vertex="1">
            <mxGeometry y="754.166666666666" width="220" height="40" as="geometry"/>
          </mxCell>
        </UserObject>
        <UserObject label="%shortname%&lt;br&gt;&lt;i style=&quot;color: gray&quot;&gt;%name%&lt;/i&gt;&lt;br&gt;%driver%" shortname="10010.03.01.03" name="Beban Kontribusi USO" driver="&amp;lt;EVENLY_ASSIGNED&amp;gt;" placeholders="1" id="w01vSuF_2xjrnzuFNLZF-320">
          <mxCell style="label;iwhiteSpace=wrap;html=1;rounded=1" parent="1" vertex="1">
            <mxGeometry x="770" y="2044.1666666666652" width="190" height="40" as="geometry"/>
          </mxCell>
        </UserObject>
        <UserObject label="%shortname%&lt;br&gt;&lt;i style=&quot;color: gray&quot;&gt;%name%&lt;/i&gt;&lt;br&gt;%driver%" shortname="8630" name="BEBAN KONTRIBUSI USO" driver="&amp;lt;EVENLY_ASSIGNED&amp;gt;" placeholders="1" id="w01vSuF_2xjrnzuFNLZF-321">
          <mxCell style="label;iwhiteSpace=wrap;html=1;rounded=1" parent="1" vertex="1">
            <mxGeometry x="360" y="897.4999999999994" width="210" height="40" as="geometry"/>
          </mxCell>
        </UserObject>
        <UserObject label="%shortname%&lt;br&gt;&lt;i style=&quot;color: gray&quot;&gt;%name%&lt;/i&gt;&lt;br&gt;%driver%" shortname="1000RE1-51365011/E" name="BEBAN KONTRIBUSI USO" driver="CostElement" placeholders="1" id="w01vSuF_2xjrnzuFNLZF-322">
          <mxCell style="label;iwhiteSpace=wrap;html=1;rounded=1" parent="1" vertex="1">
            <mxGeometry x="5" y="825.8333333333327" width="210" height="40" as="geometry"/>
          </mxCell>
        </UserObject>
        <UserObject label="%shortname%&lt;br&gt;&lt;i style=&quot;color: gray&quot;&gt;%name%&lt;/i&gt;&lt;br&gt;%driver%" shortname="1000RE2-03.02.35" name="BEBAN KONTRIBUSI USO" driver="&amp;lt;EVENLY_ASSIGNED&amp;gt;" placeholders="1" id="w01vSuF_2xjrnzuFNLZF-323">
          <mxCell style="label;iwhiteSpace=wrap;html=1;rounded=1" parent="1" vertex="1">
            <mxGeometry x="360" y="969.1666666666662" width="210" height="40" as="geometry"/>
          </mxCell>
        </UserObject>
        <UserObject label="%shortname%&lt;br&gt;&lt;i style=&quot;color: gray&quot;&gt;%name%&lt;/i&gt;&lt;br&gt;%driver%" shortname="1000RE2-51365011/E" name="BEBAN KONTRIBUSI USO" driver="CostElement" placeholders="1" id="w01vSuF_2xjrnzuFNLZF-324">
          <mxCell style="label;iwhiteSpace=wrap;html=1;rounded=1" parent="1" vertex="1">
            <mxGeometry x="5" y="897.4999999999994" width="210" height="40" as="geometry"/>
          </mxCell>
        </UserObject>
        <UserObject label="%shortname%&lt;br&gt;&lt;i style=&quot;color: gray&quot;&gt;%name%&lt;/i&gt;&lt;br&gt;%driver%" shortname="1000REBor-03.02.35" name="BEBAN KONTRIBUSI USO" driver="&amp;lt;EVENLY_ASSIGNED&amp;gt;" placeholders="1" id="w01vSuF_2xjrnzuFNLZF-325">
          <mxCell style="label;iwhiteSpace=wrap;html=1;rounded=1" parent="1" vertex="1">
            <mxGeometry x="360" y="1040.833333333333" width="210" height="40" as="geometry"/>
          </mxCell>
        </UserObject>
        <UserObject label="%shortname%&lt;br&gt;&lt;i style=&quot;color: gray&quot;&gt;%name%&lt;/i&gt;&lt;br&gt;%driver%" shortname="1000REBor-51365011/E" name="BEBAN KONTRIBUSI USO" driver="CostElement" placeholders="1" id="w01vSuF_2xjrnzuFNLZF-326">
          <mxCell style="label;iwhiteSpace=wrap;html=1;rounded=1" parent="1" vertex="1">
            <mxGeometry x="5" y="969.1666666666662" width="210" height="40" as="geometry"/>
          </mxCell>
        </UserObject>
        <UserObject label="%shortname%&lt;br&gt;&lt;i style=&quot;color: gray&quot;&gt;%name%&lt;/i&gt;&lt;br&gt;%driver%" shortname="1000REKti-03.02.35" name="BEBAN KONTRIBUSI USO" driver="&amp;lt;EVENLY_ASSIGNED&amp;gt;" placeholders="1" id="w01vSuF_2xjrnzuFNLZF-327">
          <mxCell style="label;iwhiteSpace=wrap;html=1;rounded=1" parent="1" vertex="1">
            <mxGeometry x="360" y="1112.4999999999995" width="210" height="40" as="geometry"/>
          </mxCell>
        </UserObject>
        <UserObject label="%shortname%&lt;br&gt;&lt;i style=&quot;color: gray&quot;&gt;%name%&lt;/i&gt;&lt;br&gt;%driver%" shortname="1000REKti-51365011/E" name="BEBAN KONTRIBUSI USO" driver="CostElement" placeholders="1" id="w01vSuF_2xjrnzuFNLZF-328">
          <mxCell style="label;iwhiteSpace=wrap;html=1;rounded=1" parent="1" vertex="1">
            <mxGeometry x="5" y="1040.833333333333" width="210" height="40" as="geometry"/>
          </mxCell>
        </UserObject>
        <UserObject label="%shortname%&lt;br&gt;&lt;i style=&quot;color: gray&quot;&gt;%name%&lt;/i&gt;&lt;br&gt;%driver%" shortname="1000RE3-03.02.42" name="BEBAN KONTRIBUSI USO" driver="&amp;lt;EVENLY_ASSIGNED&amp;gt;" placeholders="1" id="w01vSuF_2xjrnzuFNLZF-329">
          <mxCell style="label;iwhiteSpace=wrap;html=1;rounded=1" parent="1" vertex="1">
            <mxGeometry x="360" y="1184.166666666666" width="210" height="40" as="geometry"/>
          </mxCell>
        </UserObject>
        <UserObject label="%shortname%&lt;br&gt;&lt;i style=&quot;color: gray&quot;&gt;%name%&lt;/i&gt;&lt;br&gt;%driver%" shortname="1000RE3-51365011/E" name="BEBAN KONTRIBUSI USO" driver="CostElement" placeholders="1" id="w01vSuF_2xjrnzuFNLZF-330">
          <mxCell style="label;iwhiteSpace=wrap;html=1;rounded=1" parent="1" vertex="1">
            <mxGeometry x="5" y="1112.4999999999995" width="210" height="40" as="geometry"/>
          </mxCell>
        </UserObject>
        <UserObject label="%shortname%&lt;br&gt;&lt;i style=&quot;color: gray&quot;&gt;%name%&lt;/i&gt;&lt;br&gt;%driver%" shortname="1000RE4-03.02.35" name="BEBAN KONTRIBUSI USO" driver="&amp;lt;EVENLY_ASSIGNED&amp;gt;" placeholders="1" id="w01vSuF_2xjrnzuFNLZF-331">
          <mxCell style="label;iwhiteSpace=wrap;html=1;rounded=1" parent="1" vertex="1">
            <mxGeometry x="360" y="1255.8333333333326" width="210" height="40" as="geometry"/>
          </mxCell>
        </UserObject>
        <UserObject label="%shortname%&lt;br&gt;&lt;i style=&quot;color: gray&quot;&gt;%name%&lt;/i&gt;&lt;br&gt;%driver%" shortname="1000RE4-51365011/E" name="BEBAN KONTRIBUSI USO" driver="CostElement" placeholders="1" id="w01vSuF_2xjrnzuFNLZF-332">
          <mxCell style="label;iwhiteSpace=wrap;html=1;rounded=1" parent="1" vertex="1">
            <mxGeometry x="5" y="1184.166666666666" width="210" height="40" as="geometry"/>
          </mxCell>
        </UserObject>
        <UserObject label="%shortname%&lt;br&gt;&lt;i style=&quot;color: gray&quot;&gt;%name%&lt;/i&gt;&lt;br&gt;%driver%" shortname="1000RE5-03.02.35" name="BEBAN KONTRIBUSI USO" driver="&amp;lt;EVENLY_ASSIGNED&amp;gt;" placeholders="1" id="w01vSuF_2xjrnzuFNLZF-333">
          <mxCell style="label;iwhiteSpace=wrap;html=1;rounded=1" parent="1" vertex="1">
            <mxGeometry x="360" y="1327.499999999999" width="210" height="40" as="geometry"/>
          </mxCell>
        </UserObject>
        <UserObject label="%shortname%&lt;br&gt;&lt;i style=&quot;color: gray&quot;&gt;%name%&lt;/i&gt;&lt;br&gt;%driver%" shortname="1000RE5-51365011/E" name="BEBAN KONTRIBUSI USO" driver="CostElement" placeholders="1" id="w01vSuF_2xjrnzuFNLZF-334">
          <mxCell style="label;iwhiteSpace=wrap;html=1;rounded=1" parent="1" vertex="1">
            <mxGeometry x="5" y="1255.8333333333326" width="210" height="40" as="geometry"/>
          </mxCell>
        </UserObject>
        <UserObject label="%shortname%&lt;br&gt;&lt;i style=&quot;color: gray&quot;&gt;%name%&lt;/i&gt;&lt;br&gt;%driver%" shortname="10004.03.04" name="Beban Kontribusi USO" driver="&amp;lt;EVENLY_ASSIGNED&amp;gt;" placeholders="1" id="w01vSuF_2xjrnzuFNLZF-335">
          <mxCell style="label;iwhiteSpace=wrap;html=1;rounded=1" parent="1" vertex="1">
            <mxGeometry x="370" y="1399.1666666666656" width="190" height="40" as="geometry"/>
          </mxCell>
        </UserObject>
        <UserObject label="%shortname%&lt;br&gt;&lt;i style=&quot;color: gray&quot;&gt;%name%&lt;/i&gt;&lt;br&gt;%driver%" shortname="10004.01-51365011/E" name="Beban Kontribusi USO" driver="CostElement" placeholders="1" id="w01vSuF_2xjrnzuFNLZF-336">
          <mxCell style="label;iwhiteSpace=wrap;html=1;rounded=1" parent="1" vertex="1">
            <mxGeometry x="15" y="1327.499999999999" width="190" height="40" as="geometry"/>
          </mxCell>
        </UserObject>
        <UserObject label="%shortname%&lt;br&gt;&lt;i style=&quot;color: gray&quot;&gt;%name%&lt;/i&gt;&lt;br&gt;%driver%" shortname="10005.03.08" name="Beban Konstribusi USO" driver="&amp;lt;EVENLY_ASSIGNED&amp;gt;" placeholders="1" id="w01vSuF_2xjrnzuFNLZF-337">
          <mxCell style="label;iwhiteSpace=wrap;html=1;rounded=1" parent="1" vertex="1">
            <mxGeometry x="365" y="2042.9069010416652" width="200" height="40" as="geometry"/>
          </mxCell>
        </UserObject>
        <UserObject label="%shortname%&lt;br&gt;&lt;i style=&quot;color: gray&quot;&gt;%name%&lt;/i&gt;&lt;br&gt;%driver%" shortname="10005-51365011/E" name="Beban Konstribusi USO" driver="CostElement" placeholders="1" id="w01vSuF_2xjrnzuFNLZF-338">
          <mxCell style="label;iwhiteSpace=wrap;html=1;rounded=1" parent="1" vertex="1">
            <mxGeometry x="10" y="2042.9069010416652" width="200" height="40" as="geometry"/>
          </mxCell>
        </UserObject>
        <mxCell id="w01vSuF_2xjrnzuFNLZF-339" value="allocation" style="curved=1;endArrow=blockThin;endFill=1;fontSize=11;noEdgeStyle=1;orthogonal=1;" parent="1" source="w01vSuF_2xjrnzuFNLZF-231" target="w01vSuF_2xjrnzuFNLZF-232" edge="1">
          <mxGeometry relative="1" as="geometry">
            <Array as="points">
              <mxPoint x="2392" y="28.75"/>
              <mxPoint x="2468" y="576.3095238095237"/>
            </Array>
          </mxGeometry>
        </mxCell>
        <mxCell id="w01vSuF_2xjrnzuFNLZF-340" value="allocation" style="curved=1;endArrow=blockThin;endFill=1;fontSize=11;noEdgeStyle=1;orthogonal=1;" parent="1" source="w01vSuF_2xjrnzuFNLZF-231" target="w01vSuF_2xjrnzuFNLZF-230" edge="1">
          <mxGeometry relative="1" as="geometry">
            <Array as="points">
              <mxPoint x="2392" y="12.916666666666666"/>
              <mxPoint x="2468" y="504.64285714285705"/>
            </Array>
          </mxGeometry>
        </mxCell>
        <mxCell id="w01vSuF_2xjrnzuFNLZF-341" value="allocation" style="curved=1;endArrow=blockThin;endFill=1;fontSize=11;noEdgeStyle=1;orthogonal=1;" parent="1" source="w01vSuF_2xjrnzuFNLZF-233" target="w01vSuF_2xjrnzuFNLZF-231" edge="1">
          <mxGeometry relative="1" as="geometry">
            <Array as="points">
              <mxPoint x="1962" y="1039.8611111111104"/>
              <mxPoint x="2038" y="20.833333333333332"/>
            </Array>
          </mxGeometry>
        </mxCell>
        <mxCell id="w01vSuF_2xjrnzuFNLZF-342" value="allocation" style="curved=1;endArrow=blockThin;endFill=1;fontSize=11;noEdgeStyle=1;orthogonal=1;" parent="1" source="w01vSuF_2xjrnzuFNLZF-233" target="w01vSuF_2xjrnzuFNLZF-234" edge="1">
          <mxGeometry relative="1" as="geometry">
            <Array as="points">
              <mxPoint x="1964" y="1041.2499999999993"/>
              <mxPoint x="2038" y="92.49999999999999"/>
            </Array>
          </mxGeometry>
        </mxCell>
        <mxCell id="w01vSuF_2xjrnzuFNLZF-343" value="allocation" style="curved=1;endArrow=blockThin;endFill=1;fontSize=11;noEdgeStyle=1;orthogonal=1;" parent="1" source="w01vSuF_2xjrnzuFNLZF-233" target="w01vSuF_2xjrnzuFNLZF-235" edge="1">
          <mxGeometry relative="1" as="geometry">
            <Array as="points">
              <mxPoint x="1966" y="1042.6388888888882"/>
              <mxPoint x="2038" y="164.16666666666663"/>
            </Array>
          </mxGeometry>
        </mxCell>
        <mxCell id="w01vSuF_2xjrnzuFNLZF-344" value="allocation" style="curved=1;endArrow=blockThin;endFill=1;fontSize=11;noEdgeStyle=1;orthogonal=1;" parent="1" source="w01vSuF_2xjrnzuFNLZF-233" target="w01vSuF_2xjrnzuFNLZF-236" edge="1">
          <mxGeometry relative="1" as="geometry">
            <Array as="points">
              <mxPoint x="1968" y="1044.0277777777771"/>
              <mxPoint x="2038" y="235.83333333333334"/>
            </Array>
          </mxGeometry>
        </mxCell>
        <mxCell id="w01vSuF_2xjrnzuFNLZF-345" value="allocation" style="curved=1;endArrow=blockThin;endFill=1;fontSize=11;noEdgeStyle=1;orthogonal=1;" parent="1" source="w01vSuF_2xjrnzuFNLZF-233" target="w01vSuF_2xjrnzuFNLZF-237" edge="1">
          <mxGeometry relative="1" as="geometry">
            <Array as="points">
              <mxPoint x="1970" y="1045.416666666666"/>
              <mxPoint x="2038" y="307.5"/>
            </Array>
          </mxGeometry>
        </mxCell>
        <mxCell id="w01vSuF_2xjrnzuFNLZF-346" value="allocation" style="curved=1;endArrow=blockThin;endFill=1;fontSize=11;noEdgeStyle=1;orthogonal=1;" parent="1" source="w01vSuF_2xjrnzuFNLZF-233" target="w01vSuF_2xjrnzuFNLZF-238" edge="1">
          <mxGeometry relative="1" as="geometry">
            <Array as="points">
              <mxPoint x="1972" y="1046.805555555555"/>
              <mxPoint x="2038" y="379.16666666666663"/>
            </Array>
          </mxGeometry>
        </mxCell>
        <mxCell id="w01vSuF_2xjrnzuFNLZF-347" value="allocation" style="curved=1;endArrow=blockThin;endFill=1;fontSize=11;noEdgeStyle=1;orthogonal=1;" parent="1" source="w01vSuF_2xjrnzuFNLZF-233" target="w01vSuF_2xjrnzuFNLZF-239" edge="1">
          <mxGeometry relative="1" as="geometry">
            <Array as="points">
              <mxPoint x="1974" y="1048.194444444444"/>
              <mxPoint x="2038" y="450.83333333333326"/>
            </Array>
          </mxGeometry>
        </mxCell>
        <mxCell id="w01vSuF_2xjrnzuFNLZF-348" value="allocation" style="curved=1;endArrow=blockThin;endFill=1;fontSize=11;noEdgeStyle=1;orthogonal=1;" parent="1" source="w01vSuF_2xjrnzuFNLZF-233" target="w01vSuF_2xjrnzuFNLZF-240" edge="1">
          <mxGeometry relative="1" as="geometry">
            <Array as="points">
              <mxPoint x="1976" y="1049.5833333333328"/>
              <mxPoint x="2038" y="522.4999999999999"/>
            </Array>
          </mxGeometry>
        </mxCell>
        <mxCell id="w01vSuF_2xjrnzuFNLZF-349" value="allocation" style="curved=1;endArrow=blockThin;endFill=1;fontSize=11;noEdgeStyle=1;orthogonal=1;" parent="1" source="w01vSuF_2xjrnzuFNLZF-233" target="w01vSuF_2xjrnzuFNLZF-241" edge="1">
          <mxGeometry relative="1" as="geometry">
            <Array as="points">
              <mxPoint x="1978" y="1050.9722222222217"/>
              <mxPoint x="2038" y="594.1666666666665"/>
            </Array>
          </mxGeometry>
        </mxCell>
        <mxCell id="w01vSuF_2xjrnzuFNLZF-350" value="allocation" style="curved=1;endArrow=blockThin;endFill=1;fontSize=11;noEdgeStyle=1;orthogonal=1;" parent="1" source="w01vSuF_2xjrnzuFNLZF-233" target="w01vSuF_2xjrnzuFNLZF-242" edge="1">
          <mxGeometry relative="1" as="geometry">
            <Array as="points">
              <mxPoint x="1980" y="1052.3611111111106"/>
              <mxPoint x="2038" y="665.8333333333333"/>
            </Array>
          </mxGeometry>
        </mxCell>
        <mxCell id="w01vSuF_2xjrnzuFNLZF-351" value="allocation" style="curved=1;endArrow=blockThin;endFill=1;fontSize=11;noEdgeStyle=1;orthogonal=1;" parent="1" source="w01vSuF_2xjrnzuFNLZF-233" target="w01vSuF_2xjrnzuFNLZF-243" edge="1">
          <mxGeometry relative="1" as="geometry">
            <Array as="points">
              <mxPoint x="1982" y="1053.7499999999995"/>
              <mxPoint x="2038" y="737.5"/>
            </Array>
          </mxGeometry>
        </mxCell>
        <mxCell id="w01vSuF_2xjrnzuFNLZF-352" value="allocation" style="curved=1;endArrow=blockThin;endFill=1;fontSize=11;noEdgeStyle=1;orthogonal=1;" parent="1" source="w01vSuF_2xjrnzuFNLZF-233" target="w01vSuF_2xjrnzuFNLZF-244" edge="1">
          <mxGeometry relative="1" as="geometry">
            <Array as="points">
              <mxPoint x="1984" y="1055.1388888888885"/>
              <mxPoint x="2038" y="809.1666666666667"/>
            </Array>
          </mxGeometry>
        </mxCell>
        <mxCell id="w01vSuF_2xjrnzuFNLZF-353" value="allocation" style="curved=1;endArrow=blockThin;endFill=1;fontSize=11;noEdgeStyle=1;orthogonal=1;" parent="1" source="w01vSuF_2xjrnzuFNLZF-233" target="w01vSuF_2xjrnzuFNLZF-245" edge="1">
          <mxGeometry relative="1" as="geometry">
            <Array as="points">
              <mxPoint x="1986" y="1056.5277777777774"/>
              <mxPoint x="2038" y="880.8333333333335"/>
            </Array>
          </mxGeometry>
        </mxCell>
        <mxCell id="w01vSuF_2xjrnzuFNLZF-354" value="allocation" style="curved=1;endArrow=blockThin;endFill=1;fontSize=11;noEdgeStyle=1;orthogonal=1;" parent="1" source="w01vSuF_2xjrnzuFNLZF-233" target="w01vSuF_2xjrnzuFNLZF-246" edge="1">
          <mxGeometry relative="1" as="geometry">
            <Array as="points">
              <mxPoint x="1988" y="1057.9166666666663"/>
              <mxPoint x="2038" y="952.5000000000002"/>
            </Array>
          </mxGeometry>
        </mxCell>
        <mxCell id="w01vSuF_2xjrnzuFNLZF-355" value="allocation" style="curved=1;endArrow=blockThin;endFill=1;fontSize=11;noEdgeStyle=1;orthogonal=1;" parent="1" source="w01vSuF_2xjrnzuFNLZF-233" target="w01vSuF_2xjrnzuFNLZF-247" edge="1">
          <mxGeometry relative="1" as="geometry">
            <Array as="points">
              <mxPoint x="1990" y="1059.3055555555552"/>
              <mxPoint x="2038" y="1024.166666666667"/>
            </Array>
          </mxGeometry>
        </mxCell>
        <mxCell id="w01vSuF_2xjrnzuFNLZF-356" value="allocation" style="curved=1;endArrow=blockThin;endFill=1;fontSize=11;noEdgeStyle=1;orthogonal=1;" parent="1" source="w01vSuF_2xjrnzuFNLZF-233" target="w01vSuF_2xjrnzuFNLZF-248" edge="1">
          <mxGeometry relative="1" as="geometry">
            <Array as="points">
              <mxPoint x="1990" y="1060.6944444444441"/>
              <mxPoint x="2038" y="1095.8333333333335"/>
            </Array>
          </mxGeometry>
        </mxCell>
        <mxCell id="w01vSuF_2xjrnzuFNLZF-357" value="allocation" style="curved=1;endArrow=blockThin;endFill=1;fontSize=11;noEdgeStyle=1;orthogonal=1;" parent="1" source="w01vSuF_2xjrnzuFNLZF-233" target="w01vSuF_2xjrnzuFNLZF-249" edge="1">
          <mxGeometry relative="1" as="geometry">
            <Array as="points">
              <mxPoint x="1988" y="1062.083333333333"/>
              <mxPoint x="2038" y="1167.5"/>
            </Array>
          </mxGeometry>
        </mxCell>
        <mxCell id="w01vSuF_2xjrnzuFNLZF-358" value="allocation" style="curved=1;endArrow=blockThin;endFill=1;fontSize=11;noEdgeStyle=1;orthogonal=1;" parent="1" source="w01vSuF_2xjrnzuFNLZF-233" target="w01vSuF_2xjrnzuFNLZF-250" edge="1">
          <mxGeometry relative="1" as="geometry">
            <Array as="points">
              <mxPoint x="1986" y="1063.472222222222"/>
              <mxPoint x="2038" y="1239.1666666666665"/>
            </Array>
          </mxGeometry>
        </mxCell>
        <mxCell id="w01vSuF_2xjrnzuFNLZF-359" value="allocation" style="curved=1;endArrow=blockThin;endFill=1;fontSize=11;noEdgeStyle=1;orthogonal=1;" parent="1" source="w01vSuF_2xjrnzuFNLZF-233" target="w01vSuF_2xjrnzuFNLZF-251" edge="1">
          <mxGeometry relative="1" as="geometry">
            <Array as="points">
              <mxPoint x="1984" y="1064.8611111111109"/>
              <mxPoint x="2038" y="1310.833333333333"/>
            </Array>
          </mxGeometry>
        </mxCell>
        <mxCell id="w01vSuF_2xjrnzuFNLZF-360" value="allocation" style="curved=1;endArrow=blockThin;endFill=1;fontSize=11;noEdgeStyle=1;orthogonal=1;" parent="1" source="w01vSuF_2xjrnzuFNLZF-233" target="w01vSuF_2xjrnzuFNLZF-252" edge="1">
          <mxGeometry relative="1" as="geometry">
            <Array as="points">
              <mxPoint x="1982" y="1066.2499999999998"/>
              <mxPoint x="2038" y="1382.4999999999995"/>
            </Array>
          </mxGeometry>
        </mxCell>
        <mxCell id="w01vSuF_2xjrnzuFNLZF-361" value="allocation" style="curved=1;endArrow=blockThin;endFill=1;fontSize=11;noEdgeStyle=1;orthogonal=1;" parent="1" source="w01vSuF_2xjrnzuFNLZF-233" target="w01vSuF_2xjrnzuFNLZF-253" edge="1">
          <mxGeometry relative="1" as="geometry">
            <Array as="points">
              <mxPoint x="1980" y="1067.6388888888887"/>
              <mxPoint x="2038" y="1454.166666666666"/>
            </Array>
          </mxGeometry>
        </mxCell>
        <mxCell id="w01vSuF_2xjrnzuFNLZF-362" value="allocation" style="curved=1;endArrow=blockThin;endFill=1;fontSize=11;noEdgeStyle=1;orthogonal=1;" parent="1" source="w01vSuF_2xjrnzuFNLZF-233" target="w01vSuF_2xjrnzuFNLZF-254" edge="1">
          <mxGeometry relative="1" as="geometry">
            <Array as="points">
              <mxPoint x="1978" y="1069.0277777777776"/>
              <mxPoint x="2038" y="1525.8333333333326"/>
            </Array>
          </mxGeometry>
        </mxCell>
        <mxCell id="w01vSuF_2xjrnzuFNLZF-363" value="allocation" style="curved=1;endArrow=blockThin;endFill=1;fontSize=11;noEdgeStyle=1;orthogonal=1;" parent="1" source="w01vSuF_2xjrnzuFNLZF-233" target="w01vSuF_2xjrnzuFNLZF-255" edge="1">
          <mxGeometry relative="1" as="geometry">
            <Array as="points">
              <mxPoint x="1976" y="1070.4166666666665"/>
              <mxPoint x="2038" y="1597.499999999999"/>
            </Array>
          </mxGeometry>
        </mxCell>
        <mxCell id="w01vSuF_2xjrnzuFNLZF-364" value="allocation" style="curved=1;endArrow=blockThin;endFill=1;fontSize=11;noEdgeStyle=1;orthogonal=1;" parent="1" source="w01vSuF_2xjrnzuFNLZF-233" target="w01vSuF_2xjrnzuFNLZF-256" edge="1">
          <mxGeometry relative="1" as="geometry">
            <Array as="points">
              <mxPoint x="1974" y="1071.8055555555554"/>
              <mxPoint x="2038" y="1669.1666666666656"/>
            </Array>
          </mxGeometry>
        </mxCell>
        <mxCell id="w01vSuF_2xjrnzuFNLZF-365" value="allocation" style="curved=1;endArrow=blockThin;endFill=1;fontSize=11;noEdgeStyle=1;orthogonal=1;" parent="1" source="w01vSuF_2xjrnzuFNLZF-233" target="w01vSuF_2xjrnzuFNLZF-257" edge="1">
          <mxGeometry relative="1" as="geometry">
            <Array as="points">
              <mxPoint x="1972" y="1073.1944444444443"/>
              <mxPoint x="2038" y="1740.8333333333321"/>
            </Array>
          </mxGeometry>
        </mxCell>
        <mxCell id="w01vSuF_2xjrnzuFNLZF-366" value="allocation" style="curved=1;endArrow=blockThin;endFill=1;fontSize=11;noEdgeStyle=1;orthogonal=1;" parent="1" source="w01vSuF_2xjrnzuFNLZF-233" target="w01vSuF_2xjrnzuFNLZF-258" edge="1">
          <mxGeometry relative="1" as="geometry">
            <Array as="points">
              <mxPoint x="1970" y="1074.5833333333333"/>
              <mxPoint x="2038" y="1812.4999999999986"/>
            </Array>
          </mxGeometry>
        </mxCell>
        <mxCell id="w01vSuF_2xjrnzuFNLZF-367" value="allocation" style="curved=1;endArrow=blockThin;endFill=1;fontSize=11;noEdgeStyle=1;orthogonal=1;" parent="1" source="w01vSuF_2xjrnzuFNLZF-233" target="w01vSuF_2xjrnzuFNLZF-259" edge="1">
          <mxGeometry relative="1" as="geometry">
            <Array as="points">
              <mxPoint x="1968" y="1075.9722222222222"/>
              <mxPoint x="2038" y="1884.1666666666652"/>
            </Array>
          </mxGeometry>
        </mxCell>
        <mxCell id="w01vSuF_2xjrnzuFNLZF-368" value="allocation" style="curved=1;endArrow=blockThin;endFill=1;fontSize=11;noEdgeStyle=1;orthogonal=1;" parent="1" source="w01vSuF_2xjrnzuFNLZF-233" target="w01vSuF_2xjrnzuFNLZF-260" edge="1">
          <mxGeometry relative="1" as="geometry">
            <Array as="points">
              <mxPoint x="1966" y="1077.361111111111"/>
              <mxPoint x="2038" y="1955.8333333333317"/>
            </Array>
          </mxGeometry>
        </mxCell>
        <mxCell id="w01vSuF_2xjrnzuFNLZF-369" value="allocation" style="curved=1;endArrow=blockThin;endFill=1;fontSize=11;noEdgeStyle=1;orthogonal=1;" parent="1" source="w01vSuF_2xjrnzuFNLZF-233" target="w01vSuF_2xjrnzuFNLZF-261" edge="1">
          <mxGeometry relative="1" as="geometry">
            <Array as="points">
              <mxPoint x="1964" y="1078.75"/>
              <mxPoint x="2038" y="2027.4999999999982"/>
            </Array>
          </mxGeometry>
        </mxCell>
        <mxCell id="w01vSuF_2xjrnzuFNLZF-370" value="allocation" style="curved=1;endArrow=blockThin;endFill=1;fontSize=11;noEdgeStyle=1;orthogonal=1;" parent="1" source="w01vSuF_2xjrnzuFNLZF-233" target="w01vSuF_2xjrnzuFNLZF-262" edge="1">
          <mxGeometry relative="1" as="geometry">
            <Array as="points">
              <mxPoint x="1962" y="1080.138888888889"/>
              <mxPoint x="2038" y="2099.166666666665"/>
            </Array>
          </mxGeometry>
        </mxCell>
        <mxCell id="w01vSuF_2xjrnzuFNLZF-371" value="allocation" style="curved=1;endArrow=blockThin;endFill=1;fontSize=11;noEdgeStyle=1;orthogonal=1;" parent="1" source="w01vSuF_2xjrnzuFNLZF-235" target="w01vSuF_2xjrnzuFNLZF-232" edge="1">
          <mxGeometry relative="1" as="geometry">
            <Array as="points">
              <mxPoint x="2392" y="172.08333333333331"/>
              <mxPoint x="2466" y="582.2619047619047"/>
            </Array>
          </mxGeometry>
        </mxCell>
        <mxCell id="w01vSuF_2xjrnzuFNLZF-372" value="allocation" style="curved=1;endArrow=blockThin;endFill=1;fontSize=11;noEdgeStyle=1;orthogonal=1;" parent="1" source="w01vSuF_2xjrnzuFNLZF-235" target="w01vSuF_2xjrnzuFNLZF-230" edge="1">
          <mxGeometry relative="1" as="geometry">
            <Array as="points">
              <mxPoint x="2392" y="156.24999999999997"/>
              <mxPoint x="2466" y="510.595238095238"/>
            </Array>
          </mxGeometry>
        </mxCell>
        <mxCell id="w01vSuF_2xjrnzuFNLZF-373" value="allocation" style="curved=1;endArrow=blockThin;endFill=1;fontSize=11;noEdgeStyle=1;orthogonal=1;" parent="1" source="w01vSuF_2xjrnzuFNLZF-237" target="w01vSuF_2xjrnzuFNLZF-232" edge="1">
          <mxGeometry relative="1" as="geometry">
            <Array as="points">
              <mxPoint x="2392" y="315.41666666666674"/>
              <mxPoint x="2464" y="588.2142857142857"/>
            </Array>
          </mxGeometry>
        </mxCell>
        <mxCell id="w01vSuF_2xjrnzuFNLZF-374" value="allocation" style="curved=1;endArrow=blockThin;endFill=1;fontSize=11;noEdgeStyle=1;orthogonal=1;" parent="1" source="w01vSuF_2xjrnzuFNLZF-237" target="w01vSuF_2xjrnzuFNLZF-230" edge="1">
          <mxGeometry relative="1" as="geometry">
            <Array as="points">
              <mxPoint x="2392" y="299.58333333333337"/>
              <mxPoint x="2464" y="516.5476190476189"/>
            </Array>
          </mxGeometry>
        </mxCell>
        <mxCell id="w01vSuF_2xjrnzuFNLZF-375" value="allocation" style="curved=1;endArrow=blockThin;endFill=1;fontSize=11;noEdgeStyle=1;orthogonal=1;" parent="1" source="w01vSuF_2xjrnzuFNLZF-240" target="w01vSuF_2xjrnzuFNLZF-232" edge="1">
          <mxGeometry relative="1" as="geometry">
            <Array as="points">
              <mxPoint x="2392" y="530.4166666666666"/>
              <mxPoint x="2462" y="594.1666666666666"/>
            </Array>
          </mxGeometry>
        </mxCell>
        <mxCell id="w01vSuF_2xjrnzuFNLZF-376" value="allocation" style="curved=1;endArrow=blockThin;endFill=1;fontSize=11;noEdgeStyle=1;orthogonal=1;" parent="1" source="w01vSuF_2xjrnzuFNLZF-240" target="w01vSuF_2xjrnzuFNLZF-230" edge="1">
          <mxGeometry relative="1" as="geometry">
            <Array as="points">
              <mxPoint x="2392" y="514.5833333333333"/>
              <mxPoint x="2462" y="522.4999999999999"/>
            </Array>
          </mxGeometry>
        </mxCell>
        <mxCell id="w01vSuF_2xjrnzuFNLZF-377" value="allocation" style="curved=1;endArrow=blockThin;endFill=1;fontSize=11;noEdgeStyle=1;orthogonal=1;" parent="1" source="w01vSuF_2xjrnzuFNLZF-241" target="w01vSuF_2xjrnzuFNLZF-232" edge="1">
          <mxGeometry relative="1" as="geometry">
            <Array as="points">
              <mxPoint x="2392" y="602.0833333333333"/>
              <mxPoint x="2464" y="600.1190476190476"/>
            </Array>
          </mxGeometry>
        </mxCell>
        <mxCell id="w01vSuF_2xjrnzuFNLZF-378" value="allocation" style="curved=1;endArrow=blockThin;endFill=1;fontSize=11;noEdgeStyle=1;orthogonal=1;" parent="1" source="w01vSuF_2xjrnzuFNLZF-241" target="w01vSuF_2xjrnzuFNLZF-230" edge="1">
          <mxGeometry relative="1" as="geometry">
            <Array as="points">
              <mxPoint x="2392" y="586.2499999999999"/>
              <mxPoint x="2464" y="528.4523809523808"/>
            </Array>
          </mxGeometry>
        </mxCell>
        <mxCell id="w01vSuF_2xjrnzuFNLZF-379" value="allocation" style="curved=1;endArrow=blockThin;endFill=1;fontSize=11;noEdgeStyle=1;orthogonal=1;" parent="1" source="w01vSuF_2xjrnzuFNLZF-243" target="w01vSuF_2xjrnzuFNLZF-232" edge="1">
          <mxGeometry relative="1" as="geometry">
            <Array as="points">
              <mxPoint x="2392" y="745.4166666666667"/>
              <mxPoint x="2466" y="606.0714285714286"/>
            </Array>
          </mxGeometry>
        </mxCell>
        <mxCell id="w01vSuF_2xjrnzuFNLZF-380" value="allocation" style="curved=1;endArrow=blockThin;endFill=1;fontSize=11;noEdgeStyle=1;orthogonal=1;" parent="1" source="w01vSuF_2xjrnzuFNLZF-243" target="w01vSuF_2xjrnzuFNLZF-230" edge="1">
          <mxGeometry relative="1" as="geometry">
            <Array as="points">
              <mxPoint x="2392" y="729.5833333333334"/>
              <mxPoint x="2466" y="534.4047619047618"/>
            </Array>
          </mxGeometry>
        </mxCell>
        <mxCell id="w01vSuF_2xjrnzuFNLZF-381" value="allocation" style="curved=1;endArrow=blockThin;endFill=1;fontSize=11;noEdgeStyle=1;orthogonal=1;" parent="1" source="w01vSuF_2xjrnzuFNLZF-245" target="w01vSuF_2xjrnzuFNLZF-232" edge="1">
          <mxGeometry relative="1" as="geometry">
            <Array as="points">
              <mxPoint x="2392" y="888.7500000000002"/>
              <mxPoint x="2468" y="612.0238095238095"/>
            </Array>
          </mxGeometry>
        </mxCell>
        <mxCell id="w01vSuF_2xjrnzuFNLZF-382" value="allocation" style="curved=1;endArrow=blockThin;endFill=1;fontSize=11;noEdgeStyle=1;orthogonal=1;" parent="1" source="w01vSuF_2xjrnzuFNLZF-245" target="w01vSuF_2xjrnzuFNLZF-230" edge="1">
          <mxGeometry relative="1" as="geometry">
            <Array as="points">
              <mxPoint x="2392" y="872.9166666666669"/>
              <mxPoint x="2468" y="540.3571428571428"/>
            </Array>
          </mxGeometry>
        </mxCell>
        <mxCell id="w01vSuF_2xjrnzuFNLZF-383" value="allocation" style="curved=1;endArrow=blockThin;endFill=1;fontSize=11;noEdgeStyle=1;orthogonal=1;" parent="1" source="w01vSuF_2xjrnzuFNLZF-263" target="w01vSuF_2xjrnzuFNLZF-233" edge="1">
          <mxGeometry relative="1" as="geometry">
            <Array as="points">
              <mxPoint x="1712" y="1059.9999999999995"/>
              <mxPoint x="1788" y="1059.9999999999995"/>
            </Array>
          </mxGeometry>
        </mxCell>
        <mxCell id="w01vSuF_2xjrnzuFNLZF-384" value="allocation" style="curved=1;endArrow=blockThin;endFill=1;fontSize=11;noEdgeStyle=1;orthogonal=1;" parent="1" source="w01vSuF_2xjrnzuFNLZF-264" target="w01vSuF_2xjrnzuFNLZF-263" edge="1">
          <mxGeometry relative="1" as="geometry">
            <Array as="points">
              <mxPoint x="1422" y="307.4999999999998"/>
              <mxPoint x="1498" y="1040.1136363636358"/>
            </Array>
          </mxGeometry>
        </mxCell>
        <mxCell id="w01vSuF_2xjrnzuFNLZF-385" value="allocation" style="curved=1;endArrow=blockThin;endFill=1;fontSize=11;noEdgeStyle=1;orthogonal=1;" parent="1" source="w01vSuF_2xjrnzuFNLZF-266" target="w01vSuF_2xjrnzuFNLZF-263" edge="1">
          <mxGeometry relative="1" as="geometry">
            <Array as="points">
              <mxPoint x="1422" y="379.1666666666664"/>
              <mxPoint x="1496" y="1042.0075757575753"/>
            </Array>
          </mxGeometry>
        </mxCell>
        <mxCell id="w01vSuF_2xjrnzuFNLZF-386" value="allocation" style="curved=1;endArrow=blockThin;endFill=1;fontSize=11;noEdgeStyle=1;orthogonal=1;" parent="1" source="w01vSuF_2xjrnzuFNLZF-268" target="w01vSuF_2xjrnzuFNLZF-263" edge="1">
          <mxGeometry relative="1" as="geometry">
            <Array as="points">
              <mxPoint x="1422" y="450.83333333333303"/>
              <mxPoint x="1494" y="1043.9015151515148"/>
            </Array>
          </mxGeometry>
        </mxCell>
        <mxCell id="w01vSuF_2xjrnzuFNLZF-387" value="allocation" style="curved=1;endArrow=blockThin;endFill=1;fontSize=11;noEdgeStyle=1;orthogonal=1;" parent="1" source="w01vSuF_2xjrnzuFNLZF-270" target="w01vSuF_2xjrnzuFNLZF-263" edge="1">
          <mxGeometry relative="1" as="geometry">
            <Array as="points">
              <mxPoint x="1422" y="522.4999999999997"/>
              <mxPoint x="1492" y="1045.7954545454543"/>
            </Array>
          </mxGeometry>
        </mxCell>
        <mxCell id="w01vSuF_2xjrnzuFNLZF-388" value="allocation" style="curved=1;endArrow=blockThin;endFill=1;fontSize=11;noEdgeStyle=1;orthogonal=1;" parent="1" source="w01vSuF_2xjrnzuFNLZF-272" target="w01vSuF_2xjrnzuFNLZF-263" edge="1">
          <mxGeometry relative="1" as="geometry">
            <Array as="points">
              <mxPoint x="1422" y="594.1666666666663"/>
              <mxPoint x="1490" y="1047.6893939393938"/>
            </Array>
          </mxGeometry>
        </mxCell>
        <mxCell id="w01vSuF_2xjrnzuFNLZF-389" value="allocation" style="curved=1;endArrow=blockThin;endFill=1;fontSize=11;noEdgeStyle=1;orthogonal=1;" parent="1" source="w01vSuF_2xjrnzuFNLZF-274" target="w01vSuF_2xjrnzuFNLZF-263" edge="1">
          <mxGeometry relative="1" as="geometry">
            <Array as="points">
              <mxPoint x="1422" y="665.833333333333"/>
              <mxPoint x="1488" y="1049.5833333333333"/>
            </Array>
          </mxGeometry>
        </mxCell>
        <mxCell id="w01vSuF_2xjrnzuFNLZF-390" value="allocation" style="curved=1;endArrow=blockThin;endFill=1;fontSize=11;noEdgeStyle=1;orthogonal=1;" parent="1" source="w01vSuF_2xjrnzuFNLZF-276" target="w01vSuF_2xjrnzuFNLZF-263" edge="1">
          <mxGeometry relative="1" as="geometry">
            <Array as="points">
              <mxPoint x="1422" y="737.4999999999998"/>
              <mxPoint x="1486" y="1051.4772727272727"/>
            </Array>
          </mxGeometry>
        </mxCell>
        <mxCell id="w01vSuF_2xjrnzuFNLZF-391" value="allocation" style="curved=1;endArrow=blockThin;endFill=1;fontSize=11;noEdgeStyle=1;orthogonal=1;" parent="1" source="w01vSuF_2xjrnzuFNLZF-278" target="w01vSuF_2xjrnzuFNLZF-263" edge="1">
          <mxGeometry relative="1" as="geometry">
            <Array as="points">
              <mxPoint x="1422" y="809.1666666666665"/>
              <mxPoint x="1484" y="1053.3712121212122"/>
            </Array>
          </mxGeometry>
        </mxCell>
        <mxCell id="w01vSuF_2xjrnzuFNLZF-392" value="allocation" style="curved=1;endArrow=blockThin;endFill=1;fontSize=11;noEdgeStyle=1;orthogonal=1;" parent="1" source="w01vSuF_2xjrnzuFNLZF-280" target="w01vSuF_2xjrnzuFNLZF-263" edge="1">
          <mxGeometry relative="1" as="geometry">
            <Array as="points">
              <mxPoint x="1422" y="880.8333333333333"/>
              <mxPoint x="1482" y="1055.2651515151517"/>
            </Array>
          </mxGeometry>
        </mxCell>
        <mxCell id="w01vSuF_2xjrnzuFNLZF-393" value="allocation" style="curved=1;endArrow=blockThin;endFill=1;fontSize=11;noEdgeStyle=1;orthogonal=1;" parent="1" source="w01vSuF_2xjrnzuFNLZF-282" target="w01vSuF_2xjrnzuFNLZF-263" edge="1">
          <mxGeometry relative="1" as="geometry">
            <Array as="points">
              <mxPoint x="1422" y="952.5"/>
              <mxPoint x="1480" y="1057.1590909090912"/>
            </Array>
          </mxGeometry>
        </mxCell>
        <mxCell id="w01vSuF_2xjrnzuFNLZF-394" value="allocation" style="curved=1;endArrow=blockThin;endFill=1;fontSize=11;noEdgeStyle=1;orthogonal=1;" parent="1" source="w01vSuF_2xjrnzuFNLZF-284" target="w01vSuF_2xjrnzuFNLZF-263" edge="1">
          <mxGeometry relative="1" as="geometry">
            <Array as="points">
              <mxPoint x="1422" y="1024.1666666666667"/>
              <mxPoint x="1478" y="1059.0530303030307"/>
            </Array>
          </mxGeometry>
        </mxCell>
        <mxCell id="w01vSuF_2xjrnzuFNLZF-395" value="allocation" style="curved=1;endArrow=blockThin;endFill=1;fontSize=11;noEdgeStyle=1;orthogonal=1;" parent="1" source="w01vSuF_2xjrnzuFNLZF-286" target="w01vSuF_2xjrnzuFNLZF-263" edge="1">
          <mxGeometry relative="1" as="geometry">
            <Array as="points">
              <mxPoint x="1422" y="1095.8333333333335"/>
              <mxPoint x="1478" y="1060.9469696969702"/>
            </Array>
          </mxGeometry>
        </mxCell>
        <mxCell id="w01vSuF_2xjrnzuFNLZF-396" value="allocation" style="curved=1;endArrow=blockThin;endFill=1;fontSize=11;noEdgeStyle=1;orthogonal=1;" parent="1" source="w01vSuF_2xjrnzuFNLZF-288" target="w01vSuF_2xjrnzuFNLZF-263" edge="1">
          <mxGeometry relative="1" as="geometry">
            <Array as="points">
              <mxPoint x="1422" y="1167.5"/>
              <mxPoint x="1480" y="1062.8409090909097"/>
            </Array>
          </mxGeometry>
        </mxCell>
        <mxCell id="w01vSuF_2xjrnzuFNLZF-397" value="allocation" style="curved=1;endArrow=blockThin;endFill=1;fontSize=11;noEdgeStyle=1;orthogonal=1;" parent="1" source="w01vSuF_2xjrnzuFNLZF-290" target="w01vSuF_2xjrnzuFNLZF-263" edge="1">
          <mxGeometry relative="1" as="geometry">
            <Array as="points">
              <mxPoint x="1422" y="1239.1666666666665"/>
              <mxPoint x="1482" y="1064.7348484848492"/>
            </Array>
          </mxGeometry>
        </mxCell>
        <mxCell id="w01vSuF_2xjrnzuFNLZF-398" value="allocation" style="curved=1;endArrow=blockThin;endFill=1;fontSize=11;noEdgeStyle=1;orthogonal=1;" parent="1" source="w01vSuF_2xjrnzuFNLZF-292" target="w01vSuF_2xjrnzuFNLZF-263" edge="1">
          <mxGeometry relative="1" as="geometry">
            <Array as="points">
              <mxPoint x="1422" y="1310.833333333333"/>
              <mxPoint x="1484" y="1066.6287878787887"/>
            </Array>
          </mxGeometry>
        </mxCell>
        <mxCell id="w01vSuF_2xjrnzuFNLZF-399" value="allocation" style="curved=1;endArrow=blockThin;endFill=1;fontSize=11;noEdgeStyle=1;orthogonal=1;" parent="1" source="w01vSuF_2xjrnzuFNLZF-294" target="w01vSuF_2xjrnzuFNLZF-263" edge="1">
          <mxGeometry relative="1" as="geometry">
            <Array as="points">
              <mxPoint x="1422" y="1382.4999999999995"/>
              <mxPoint x="1486" y="1068.5227272727282"/>
            </Array>
          </mxGeometry>
        </mxCell>
        <mxCell id="w01vSuF_2xjrnzuFNLZF-400" value="allocation" style="curved=1;endArrow=blockThin;endFill=1;fontSize=11;noEdgeStyle=1;orthogonal=1;" parent="1" source="w01vSuF_2xjrnzuFNLZF-297" target="w01vSuF_2xjrnzuFNLZF-294" edge="1">
          <mxGeometry relative="1" as="geometry">
            <Array as="points">
              <mxPoint x="1032" y="1275"/>
              <mxPoint x="1108" y="1393.0555555555552"/>
            </Array>
          </mxGeometry>
        </mxCell>
        <mxCell id="w01vSuF_2xjrnzuFNLZF-401" value="allocation" style="curved=1;endArrow=blockThin;endFill=1;fontSize=11;noEdgeStyle=1;orthogonal=1;" parent="1" source="w01vSuF_2xjrnzuFNLZF-299" target="w01vSuF_2xjrnzuFNLZF-263" edge="1">
          <mxGeometry relative="1" as="geometry">
            <Array as="points">
              <mxPoint x="1422" y="1454.166666666666"/>
              <mxPoint x="1488" y="1070.4166666666677"/>
            </Array>
          </mxGeometry>
        </mxCell>
        <mxCell id="w01vSuF_2xjrnzuFNLZF-402" value="allocation" style="curved=1;endArrow=blockThin;endFill=1;fontSize=11;noEdgeStyle=1;orthogonal=1;" parent="1" source="w01vSuF_2xjrnzuFNLZF-301" target="w01vSuF_2xjrnzuFNLZF-299" edge="1">
          <mxGeometry relative="1" as="geometry">
            <Array as="points">
              <mxPoint x="1032" y="1418.333333333333"/>
              <mxPoint x="1108" y="1462.0833333333326"/>
            </Array>
          </mxGeometry>
        </mxCell>
        <mxCell id="w01vSuF_2xjrnzuFNLZF-403" value="allocation" style="curved=1;endArrow=blockThin;endFill=1;fontSize=11;noEdgeStyle=1;orthogonal=1;" parent="1" source="w01vSuF_2xjrnzuFNLZF-303" target="w01vSuF_2xjrnzuFNLZF-263" edge="1">
          <mxGeometry relative="1" as="geometry">
            <Array as="points">
              <mxPoint x="1422" y="1525.8333333333326"/>
              <mxPoint x="1490" y="1072.3106060606071"/>
            </Array>
          </mxGeometry>
        </mxCell>
        <mxCell id="w01vSuF_2xjrnzuFNLZF-404" value="allocation" style="curved=1;endArrow=blockThin;endFill=1;fontSize=11;noEdgeStyle=1;orthogonal=1;" parent="1" source="w01vSuF_2xjrnzuFNLZF-305" target="w01vSuF_2xjrnzuFNLZF-263" edge="1">
          <mxGeometry relative="1" as="geometry">
            <Array as="points">
              <mxPoint x="1422" y="1597.499999999999"/>
              <mxPoint x="1492" y="1074.2045454545466"/>
            </Array>
          </mxGeometry>
        </mxCell>
        <mxCell id="w01vSuF_2xjrnzuFNLZF-405" value="allocation" style="curved=1;endArrow=blockThin;endFill=1;fontSize=11;noEdgeStyle=1;orthogonal=1;" parent="1" source="w01vSuF_2xjrnzuFNLZF-307" target="w01vSuF_2xjrnzuFNLZF-263" edge="1">
          <mxGeometry relative="1" as="geometry">
            <Array as="points">
              <mxPoint x="1422" y="1669.1666666666656"/>
              <mxPoint x="1494" y="1076.0984848484861"/>
            </Array>
          </mxGeometry>
        </mxCell>
        <mxCell id="w01vSuF_2xjrnzuFNLZF-406" value="allocation" style="curved=1;endArrow=blockThin;endFill=1;fontSize=11;noEdgeStyle=1;orthogonal=1;" parent="1" source="w01vSuF_2xjrnzuFNLZF-309" target="w01vSuF_2xjrnzuFNLZF-263" edge="1">
          <mxGeometry relative="1" as="geometry">
            <Array as="points">
              <mxPoint x="1422" y="1740.8333333333321"/>
              <mxPoint x="1496" y="1077.9924242424256"/>
            </Array>
          </mxGeometry>
        </mxCell>
        <mxCell id="w01vSuF_2xjrnzuFNLZF-407" value="allocation" style="curved=1;endArrow=blockThin;endFill=1;fontSize=11;noEdgeStyle=1;orthogonal=1;" parent="1" source="w01vSuF_2xjrnzuFNLZF-313" target="w01vSuF_2xjrnzuFNLZF-263" edge="1">
          <mxGeometry relative="1" as="geometry">
            <Array as="points">
              <mxPoint x="1422" y="1812.4999999999986"/>
              <mxPoint x="1498" y="1079.886363636365"/>
            </Array>
          </mxGeometry>
        </mxCell>
        <mxCell id="w01vSuF_2xjrnzuFNLZF-408" value="allocation" style="curved=1;endArrow=blockThin;endFill=1;fontSize=11;noEdgeStyle=1;orthogonal=1;" parent="1" source="w01vSuF_2xjrnzuFNLZF-314" target="w01vSuF_2xjrnzuFNLZF-313" edge="1">
          <mxGeometry relative="1" as="geometry">
            <Array as="points">
              <mxPoint x="1032" y="1919.9999999999986"/>
              <mxPoint x="1108" y="1801.944444444443"/>
            </Array>
          </mxGeometry>
        </mxCell>
        <mxCell id="w01vSuF_2xjrnzuFNLZF-409" value="allocation" style="curved=1;endArrow=blockThin;endFill=1;fontSize=11;noEdgeStyle=1;orthogonal=1;" parent="1" source="w01vSuF_2xjrnzuFNLZF-316" target="w01vSuF_2xjrnzuFNLZF-313" edge="1">
          <mxGeometry relative="1" as="geometry">
            <Array as="points">
              <mxPoint x="1032" y="1991.6666666666652"/>
              <mxPoint x="1106" y="1812.4999999999986"/>
            </Array>
          </mxGeometry>
        </mxCell>
        <mxCell id="w01vSuF_2xjrnzuFNLZF-410" value="allocation" style="curved=1;endArrow=blockThin;endFill=1;fontSize=11;noEdgeStyle=1;orthogonal=1;" parent="1" source="w01vSuF_2xjrnzuFNLZF-317" target="w01vSuF_2xjrnzuFNLZF-316" edge="1">
          <mxGeometry relative="1" as="geometry">
            <Array as="points">
              <mxPoint x="622" y="844.9999999999993"/>
              <mxPoint x="698" y="1991.6666666666652"/>
            </Array>
          </mxGeometry>
        </mxCell>
        <mxCell id="w01vSuF_2xjrnzuFNLZF-411" value="allocation" style="curved=1;endArrow=blockThin;endFill=1;fontSize=11;noEdgeStyle=1;orthogonal=1;" parent="1" source="w01vSuF_2xjrnzuFNLZF-320" target="w01vSuF_2xjrnzuFNLZF-313" edge="1">
          <mxGeometry relative="1" as="geometry">
            <Array as="points">
              <mxPoint x="1032" y="2063.3333333333317"/>
              <mxPoint x="1108" y="1823.0555555555543"/>
            </Array>
          </mxGeometry>
        </mxCell>
        <mxCell id="w01vSuF_2xjrnzuFNLZF-412" value="allocation" style="curved=1;endArrow=blockThin;endFill=1;fontSize=11;noEdgeStyle=1;orthogonal=1;" parent="1" source="w01vSuF_2xjrnzuFNLZF-321" target="w01vSuF_2xjrnzuFNLZF-320" edge="1">
          <mxGeometry relative="1" as="geometry">
            <Array as="points">
              <mxPoint x="622" y="916.6666666666661"/>
              <mxPoint x="698" y="2044.8148148148132"/>
            </Array>
          </mxGeometry>
        </mxCell>
        <mxCell id="w01vSuF_2xjrnzuFNLZF-413" value="allocation" style="curved=1;endArrow=blockThin;endFill=1;fontSize=11;noEdgeStyle=1;orthogonal=1;" parent="1" source="w01vSuF_2xjrnzuFNLZF-323" target="w01vSuF_2xjrnzuFNLZF-320" edge="1">
          <mxGeometry relative="1" as="geometry">
            <Array as="points">
              <mxPoint x="622" y="988.3333333333328"/>
              <mxPoint x="696" y="2049.444444444443"/>
            </Array>
          </mxGeometry>
        </mxCell>
        <mxCell id="w01vSuF_2xjrnzuFNLZF-414" value="allocation" style="curved=1;endArrow=blockThin;endFill=1;fontSize=11;noEdgeStyle=1;orthogonal=1;" parent="1" source="w01vSuF_2xjrnzuFNLZF-325" target="w01vSuF_2xjrnzuFNLZF-320" edge="1">
          <mxGeometry relative="1" as="geometry">
            <Array as="points">
              <mxPoint x="622" y="1059.9999999999995"/>
              <mxPoint x="694" y="2054.0740740740725"/>
            </Array>
          </mxGeometry>
        </mxCell>
        <mxCell id="w01vSuF_2xjrnzuFNLZF-415" value="allocation" style="curved=1;endArrow=blockThin;endFill=1;fontSize=11;noEdgeStyle=1;orthogonal=1;" parent="1" source="w01vSuF_2xjrnzuFNLZF-327" target="w01vSuF_2xjrnzuFNLZF-320" edge="1">
          <mxGeometry relative="1" as="geometry">
            <Array as="points">
              <mxPoint x="622" y="1131.666666666666"/>
              <mxPoint x="692" y="2058.703703703702"/>
            </Array>
          </mxGeometry>
        </mxCell>
        <mxCell id="w01vSuF_2xjrnzuFNLZF-416" value="allocation" style="curved=1;endArrow=blockThin;endFill=1;fontSize=11;noEdgeStyle=1;orthogonal=1;" parent="1" source="w01vSuF_2xjrnzuFNLZF-329" target="w01vSuF_2xjrnzuFNLZF-320" edge="1">
          <mxGeometry relative="1" as="geometry">
            <Array as="points">
              <mxPoint x="622" y="1203.3333333333326"/>
              <mxPoint x="690" y="2063.3333333333317"/>
            </Array>
          </mxGeometry>
        </mxCell>
        <mxCell id="w01vSuF_2xjrnzuFNLZF-417" value="allocation" style="curved=1;endArrow=blockThin;endFill=1;fontSize=11;noEdgeStyle=1;orthogonal=1;" parent="1" source="w01vSuF_2xjrnzuFNLZF-331" target="w01vSuF_2xjrnzuFNLZF-320" edge="1">
          <mxGeometry relative="1" as="geometry">
            <Array as="points">
              <mxPoint x="622" y="1274.999999999999"/>
              <mxPoint x="692" y="2067.9629629629612"/>
            </Array>
          </mxGeometry>
        </mxCell>
        <mxCell id="w01vSuF_2xjrnzuFNLZF-418" value="allocation" style="curved=1;endArrow=blockThin;endFill=1;fontSize=11;noEdgeStyle=1;orthogonal=1;" parent="1" source="w01vSuF_2xjrnzuFNLZF-333" target="w01vSuF_2xjrnzuFNLZF-320" edge="1">
          <mxGeometry relative="1" as="geometry">
            <Array as="points">
              <mxPoint x="622" y="1346.6666666666656"/>
              <mxPoint x="694" y="2072.592592592591"/>
            </Array>
          </mxGeometry>
        </mxCell>
        <mxCell id="w01vSuF_2xjrnzuFNLZF-419" value="allocation" style="curved=1;endArrow=blockThin;endFill=1;fontSize=11;noEdgeStyle=1;orthogonal=1;" parent="1" source="w01vSuF_2xjrnzuFNLZF-335" target="w01vSuF_2xjrnzuFNLZF-320" edge="1">
          <mxGeometry relative="1" as="geometry">
            <Array as="points">
              <mxPoint x="622" y="1418.3333333333321"/>
              <mxPoint x="696" y="2077.2222222222204"/>
            </Array>
          </mxGeometry>
        </mxCell>
        <mxCell id="w01vSuF_2xjrnzuFNLZF-420" value="allocation" style="curved=1;endArrow=blockThin;endFill=1;fontSize=11;noEdgeStyle=1;orthogonal=1;" parent="1" source="w01vSuF_2xjrnzuFNLZF-337" target="w01vSuF_2xjrnzuFNLZF-320" edge="1">
          <mxGeometry relative="1" as="geometry">
            <Array as="points">
              <mxPoint x="622" y="2062.0735677083317"/>
              <mxPoint x="698" y="2081.85185185185"/>
            </Array>
          </mxGeometry>
        </mxCell>
        <mxCell id="w01vSuF_2xjrnzuFNLZF-421" value="child of" style="curved=1;endArrow=blockThin;endFill=1;fontSize=11;noEdgeStyle=1;orthogonal=1;" parent="1" source="w01vSuF_2xjrnzuFNLZF-265" target="w01vSuF_2xjrnzuFNLZF-264" edge="1">
          <mxGeometry relative="1" as="geometry">
            <Array as="points">
              <mxPoint x="1032" y="56.66666666666681"/>
              <mxPoint x="1108" y="307.4999999999998"/>
            </Array>
          </mxGeometry>
        </mxCell>
        <mxCell id="w01vSuF_2xjrnzuFNLZF-422" value="child of" style="curved=1;endArrow=blockThin;endFill=1;fontSize=11;noEdgeStyle=1;orthogonal=1;" parent="1" source="w01vSuF_2xjrnzuFNLZF-267" target="w01vSuF_2xjrnzuFNLZF-266" edge="1">
          <mxGeometry relative="1" as="geometry">
            <Array as="points">
              <mxPoint x="1032" y="128.33333333333348"/>
              <mxPoint x="1108" y="379.1666666666664"/>
            </Array>
          </mxGeometry>
        </mxCell>
        <mxCell id="w01vSuF_2xjrnzuFNLZF-423" value="child of" style="curved=1;endArrow=blockThin;endFill=1;fontSize=11;noEdgeStyle=1;orthogonal=1;" parent="1" source="w01vSuF_2xjrnzuFNLZF-269" target="w01vSuF_2xjrnzuFNLZF-268" edge="1">
          <mxGeometry relative="1" as="geometry">
            <Array as="points">
              <mxPoint x="1032" y="200.00000000000017"/>
              <mxPoint x="1108" y="450.83333333333303"/>
            </Array>
          </mxGeometry>
        </mxCell>
        <mxCell id="w01vSuF_2xjrnzuFNLZF-424" value="child of" style="curved=1;endArrow=blockThin;endFill=1;fontSize=11;noEdgeStyle=1;orthogonal=1;" parent="1" source="w01vSuF_2xjrnzuFNLZF-271" target="w01vSuF_2xjrnzuFNLZF-270" edge="1">
          <mxGeometry relative="1" as="geometry">
            <Array as="points">
              <mxPoint x="1032" y="271.66666666666686"/>
              <mxPoint x="1108" y="522.4999999999997"/>
            </Array>
          </mxGeometry>
        </mxCell>
        <mxCell id="w01vSuF_2xjrnzuFNLZF-425" value="child of" style="curved=1;endArrow=blockThin;endFill=1;fontSize=11;noEdgeStyle=1;orthogonal=1;" parent="1" source="w01vSuF_2xjrnzuFNLZF-273" target="w01vSuF_2xjrnzuFNLZF-272" edge="1">
          <mxGeometry relative="1" as="geometry">
            <Array as="points">
              <mxPoint x="1032" y="343.3333333333335"/>
              <mxPoint x="1108" y="594.1666666666663"/>
            </Array>
          </mxGeometry>
        </mxCell>
        <mxCell id="w01vSuF_2xjrnzuFNLZF-426" value="child of" style="curved=1;endArrow=blockThin;endFill=1;fontSize=11;noEdgeStyle=1;orthogonal=1;" parent="1" source="w01vSuF_2xjrnzuFNLZF-275" target="w01vSuF_2xjrnzuFNLZF-274" edge="1">
          <mxGeometry relative="1" as="geometry">
            <Array as="points">
              <mxPoint x="1032" y="415.0000000000001"/>
              <mxPoint x="1108" y="665.833333333333"/>
            </Array>
          </mxGeometry>
        </mxCell>
        <mxCell id="w01vSuF_2xjrnzuFNLZF-427" value="child of" style="curved=1;endArrow=blockThin;endFill=1;fontSize=11;noEdgeStyle=1;orthogonal=1;" parent="1" source="w01vSuF_2xjrnzuFNLZF-277" target="w01vSuF_2xjrnzuFNLZF-276" edge="1">
          <mxGeometry relative="1" as="geometry">
            <Array as="points">
              <mxPoint x="1032" y="486.66666666666674"/>
              <mxPoint x="1108" y="737.4999999999998"/>
            </Array>
          </mxGeometry>
        </mxCell>
        <mxCell id="w01vSuF_2xjrnzuFNLZF-428" value="child of" style="curved=1;endArrow=blockThin;endFill=1;fontSize=11;noEdgeStyle=1;orthogonal=1;" parent="1" source="w01vSuF_2xjrnzuFNLZF-279" target="w01vSuF_2xjrnzuFNLZF-278" edge="1">
          <mxGeometry relative="1" as="geometry">
            <Array as="points">
              <mxPoint x="1032" y="558.3333333333333"/>
              <mxPoint x="1108" y="809.1666666666665"/>
            </Array>
          </mxGeometry>
        </mxCell>
        <mxCell id="w01vSuF_2xjrnzuFNLZF-429" value="child of" style="curved=1;endArrow=blockThin;endFill=1;fontSize=11;noEdgeStyle=1;orthogonal=1;" parent="1" source="w01vSuF_2xjrnzuFNLZF-281" target="w01vSuF_2xjrnzuFNLZF-280" edge="1">
          <mxGeometry relative="1" as="geometry">
            <Array as="points">
              <mxPoint x="1032" y="630"/>
              <mxPoint x="1108" y="880.8333333333333"/>
            </Array>
          </mxGeometry>
        </mxCell>
        <mxCell id="w01vSuF_2xjrnzuFNLZF-430" value="child of" style="curved=1;endArrow=blockThin;endFill=1;fontSize=11;noEdgeStyle=1;orthogonal=1;" parent="1" source="w01vSuF_2xjrnzuFNLZF-283" target="w01vSuF_2xjrnzuFNLZF-282" edge="1">
          <mxGeometry relative="1" as="geometry">
            <Array as="points">
              <mxPoint x="1032" y="701.6666666666667"/>
              <mxPoint x="1108" y="952.5"/>
            </Array>
          </mxGeometry>
        </mxCell>
        <mxCell id="w01vSuF_2xjrnzuFNLZF-431" value="child of" style="curved=1;endArrow=blockThin;endFill=1;fontSize=11;noEdgeStyle=1;orthogonal=1;" parent="1" source="w01vSuF_2xjrnzuFNLZF-285" target="w01vSuF_2xjrnzuFNLZF-284" edge="1">
          <mxGeometry relative="1" as="geometry">
            <Array as="points">
              <mxPoint x="1032" y="773.3333333333335"/>
              <mxPoint x="1108" y="1024.1666666666667"/>
            </Array>
          </mxGeometry>
        </mxCell>
        <mxCell id="w01vSuF_2xjrnzuFNLZF-432" value="child of" style="curved=1;endArrow=blockThin;endFill=1;fontSize=11;noEdgeStyle=1;orthogonal=1;" parent="1" source="w01vSuF_2xjrnzuFNLZF-287" target="w01vSuF_2xjrnzuFNLZF-286" edge="1">
          <mxGeometry relative="1" as="geometry">
            <Array as="points">
              <mxPoint x="1032" y="845.0000000000002"/>
              <mxPoint x="1108" y="1095.8333333333335"/>
            </Array>
          </mxGeometry>
        </mxCell>
        <mxCell id="w01vSuF_2xjrnzuFNLZF-433" value="child of" style="curved=1;endArrow=blockThin;endFill=1;fontSize=11;noEdgeStyle=1;orthogonal=1;" parent="1" source="w01vSuF_2xjrnzuFNLZF-289" target="w01vSuF_2xjrnzuFNLZF-288" edge="1">
          <mxGeometry relative="1" as="geometry">
            <Array as="points">
              <mxPoint x="1032" y="916.666666666667"/>
              <mxPoint x="1108" y="1167.5"/>
            </Array>
          </mxGeometry>
        </mxCell>
        <mxCell id="w01vSuF_2xjrnzuFNLZF-434" value="child of" style="curved=1;endArrow=blockThin;endFill=1;fontSize=11;noEdgeStyle=1;orthogonal=1;" parent="1" source="w01vSuF_2xjrnzuFNLZF-291" target="w01vSuF_2xjrnzuFNLZF-290" edge="1">
          <mxGeometry relative="1" as="geometry">
            <Array as="points">
              <mxPoint x="1032" y="988.3333333333337"/>
              <mxPoint x="1108" y="1239.1666666666665"/>
            </Array>
          </mxGeometry>
        </mxCell>
        <mxCell id="w01vSuF_2xjrnzuFNLZF-435" value="child of" style="curved=1;endArrow=blockThin;endFill=1;fontSize=11;noEdgeStyle=1;orthogonal=1;" parent="1" source="w01vSuF_2xjrnzuFNLZF-293" target="w01vSuF_2xjrnzuFNLZF-292" edge="1">
          <mxGeometry relative="1" as="geometry">
            <Array as="points">
              <mxPoint x="1032" y="1060.0000000000005"/>
              <mxPoint x="1108" y="1310.833333333333"/>
            </Array>
          </mxGeometry>
        </mxCell>
        <mxCell id="w01vSuF_2xjrnzuFNLZF-436" value="child of" style="curved=1;endArrow=blockThin;endFill=1;fontSize=11;noEdgeStyle=1;orthogonal=1;" parent="1" source="w01vSuF_2xjrnzuFNLZF-295" target="w01vSuF_2xjrnzuFNLZF-294" edge="1">
          <mxGeometry relative="1" as="geometry">
            <Array as="points">
              <mxPoint x="1032" y="1131.666666666667"/>
              <mxPoint x="1108" y="1371.944444444444"/>
            </Array>
          </mxGeometry>
        </mxCell>
        <mxCell id="w01vSuF_2xjrnzuFNLZF-437" value="child of" style="curved=1;endArrow=blockThin;endFill=1;fontSize=11;noEdgeStyle=1;orthogonal=1;" parent="1" source="w01vSuF_2xjrnzuFNLZF-296" target="w01vSuF_2xjrnzuFNLZF-294" edge="1">
          <mxGeometry relative="1" as="geometry">
            <Array as="points">
              <mxPoint x="1032" y="1203.3333333333335"/>
              <mxPoint x="1106" y="1382.4999999999995"/>
            </Array>
          </mxGeometry>
        </mxCell>
        <mxCell id="w01vSuF_2xjrnzuFNLZF-438" value="child of" style="curved=1;endArrow=blockThin;endFill=1;fontSize=11;noEdgeStyle=1;orthogonal=1;" parent="1" source="w01vSuF_2xjrnzuFNLZF-298" target="w01vSuF_2xjrnzuFNLZF-297" edge="1">
          <mxGeometry relative="1" as="geometry">
            <Array as="points">
              <mxPoint x="622" y="629.9999999999991"/>
              <mxPoint x="698" y="1275"/>
            </Array>
          </mxGeometry>
        </mxCell>
        <mxCell id="w01vSuF_2xjrnzuFNLZF-439" value="child of" style="curved=1;endArrow=blockThin;endFill=1;fontSize=11;noEdgeStyle=1;orthogonal=1;" parent="1" source="w01vSuF_2xjrnzuFNLZF-300" target="w01vSuF_2xjrnzuFNLZF-299" edge="1">
          <mxGeometry relative="1" as="geometry">
            <Array as="points">
              <mxPoint x="1032" y="1346.6666666666665"/>
              <mxPoint x="1108" y="1446.2499999999993"/>
            </Array>
          </mxGeometry>
        </mxCell>
        <mxCell id="w01vSuF_2xjrnzuFNLZF-440" value="child of" style="curved=1;endArrow=blockThin;endFill=1;fontSize=11;noEdgeStyle=1;orthogonal=1;" parent="1" source="w01vSuF_2xjrnzuFNLZF-302" target="w01vSuF_2xjrnzuFNLZF-301" edge="1">
          <mxGeometry relative="1" as="geometry">
            <Array as="points">
              <mxPoint x="622" y="701.6666666666658"/>
              <mxPoint x="698" y="1418.333333333333"/>
            </Array>
          </mxGeometry>
        </mxCell>
        <mxCell id="w01vSuF_2xjrnzuFNLZF-441" value="child of" style="curved=1;endArrow=blockThin;endFill=1;fontSize=11;noEdgeStyle=1;orthogonal=1;" parent="1" source="w01vSuF_2xjrnzuFNLZF-304" target="w01vSuF_2xjrnzuFNLZF-303" edge="1">
          <mxGeometry relative="1" as="geometry">
            <Array as="points">
              <mxPoint x="1032" y="1489.9999999999995"/>
              <mxPoint x="1108" y="1525.8333333333326"/>
            </Array>
          </mxGeometry>
        </mxCell>
        <mxCell id="w01vSuF_2xjrnzuFNLZF-442" value="child of" style="curved=1;endArrow=blockThin;endFill=1;fontSize=11;noEdgeStyle=1;orthogonal=1;" parent="1" source="w01vSuF_2xjrnzuFNLZF-306" target="w01vSuF_2xjrnzuFNLZF-305" edge="1">
          <mxGeometry relative="1" as="geometry">
            <Array as="points">
              <mxPoint x="1032" y="1561.666666666666"/>
              <mxPoint x="1108" y="1597.499999999999"/>
            </Array>
          </mxGeometry>
        </mxCell>
        <mxCell id="w01vSuF_2xjrnzuFNLZF-443" value="child of" style="curved=1;endArrow=blockThin;endFill=1;fontSize=11;noEdgeStyle=1;orthogonal=1;" parent="1" source="w01vSuF_2xjrnzuFNLZF-308" target="w01vSuF_2xjrnzuFNLZF-307" edge="1">
          <mxGeometry relative="1" as="geometry">
            <Array as="points">
              <mxPoint x="1032" y="1633.3333333333326"/>
              <mxPoint x="1108" y="1669.1666666666656"/>
            </Array>
          </mxGeometry>
        </mxCell>
        <mxCell id="w01vSuF_2xjrnzuFNLZF-444" value="child of" style="curved=1;endArrow=blockThin;endFill=1;fontSize=11;noEdgeStyle=1;orthogonal=1;" parent="1" source="w01vSuF_2xjrnzuFNLZF-310" target="w01vSuF_2xjrnzuFNLZF-309" edge="1">
          <mxGeometry relative="1" as="geometry">
            <Array as="points">
              <mxPoint x="1032" y="1704.999999999999"/>
              <mxPoint x="1108" y="1730.2777777777765"/>
            </Array>
          </mxGeometry>
        </mxCell>
        <mxCell id="w01vSuF_2xjrnzuFNLZF-445" value="child of" style="curved=1;endArrow=blockThin;endFill=1;fontSize=11;noEdgeStyle=1;orthogonal=1;" parent="1" source="w01vSuF_2xjrnzuFNLZF-311" target="w01vSuF_2xjrnzuFNLZF-309" edge="1">
          <mxGeometry relative="1" as="geometry">
            <Array as="points">
              <mxPoint x="1032" y="1776.6666666666656"/>
              <mxPoint x="1106" y="1740.8333333333321"/>
            </Array>
          </mxGeometry>
        </mxCell>
        <mxCell id="w01vSuF_2xjrnzuFNLZF-446" value="child of" style="curved=1;endArrow=blockThin;endFill=1;fontSize=11;noEdgeStyle=1;orthogonal=1;" parent="1" source="w01vSuF_2xjrnzuFNLZF-312" target="w01vSuF_2xjrnzuFNLZF-309" edge="1">
          <mxGeometry relative="1" as="geometry">
            <Array as="points">
              <mxPoint x="1032" y="1848.3333333333321"/>
              <mxPoint x="1108" y="1751.3888888888878"/>
            </Array>
          </mxGeometry>
        </mxCell>
        <mxCell id="w01vSuF_2xjrnzuFNLZF-447" value="child of" style="curved=1;endArrow=blockThin;endFill=1;fontSize=11;noEdgeStyle=1;orthogonal=1;" parent="1" source="w01vSuF_2xjrnzuFNLZF-315" target="w01vSuF_2xjrnzuFNLZF-314" edge="1">
          <mxGeometry relative="1" as="geometry">
            <Array as="points">
              <mxPoint x="622" y="773.3333333333326"/>
              <mxPoint x="698" y="1919.9999999999986"/>
            </Array>
          </mxGeometry>
        </mxCell>
        <mxCell id="w01vSuF_2xjrnzuFNLZF-448" value="child of" style="curved=1;endArrow=blockThin;endFill=1;fontSize=11;noEdgeStyle=1;orthogonal=1;" parent="1" source="w01vSuF_2xjrnzuFNLZF-318" target="w01vSuF_2xjrnzuFNLZF-317" edge="1">
          <mxGeometry relative="1" as="geometry">
            <Array as="points">
              <mxPoint x="232" y="701.6666666666658"/>
              <mxPoint x="308" y="837.0833333333327"/>
            </Array>
          </mxGeometry>
        </mxCell>
        <mxCell id="w01vSuF_2xjrnzuFNLZF-449" value="child of" style="curved=1;endArrow=blockThin;endFill=1;fontSize=11;noEdgeStyle=1;orthogonal=1;" parent="1" source="w01vSuF_2xjrnzuFNLZF-319" target="w01vSuF_2xjrnzuFNLZF-317" edge="1">
          <mxGeometry relative="1" as="geometry">
            <Array as="points">
              <mxPoint x="232" y="773.3333333333326"/>
              <mxPoint x="308" y="852.9166666666661"/>
            </Array>
          </mxGeometry>
        </mxCell>
        <mxCell id="w01vSuF_2xjrnzuFNLZF-450" value="child of" style="curved=1;endArrow=blockThin;endFill=1;fontSize=11;noEdgeStyle=1;orthogonal=1;" parent="1" source="w01vSuF_2xjrnzuFNLZF-322" target="w01vSuF_2xjrnzuFNLZF-321" edge="1">
          <mxGeometry relative="1" as="geometry">
            <Array as="points">
              <mxPoint x="232" y="844.9999999999993"/>
              <mxPoint x="308" y="916.6666666666661"/>
            </Array>
          </mxGeometry>
        </mxCell>
        <mxCell id="w01vSuF_2xjrnzuFNLZF-451" value="child of" style="curved=1;endArrow=blockThin;endFill=1;fontSize=11;noEdgeStyle=1;orthogonal=1;" parent="1" source="w01vSuF_2xjrnzuFNLZF-324" target="w01vSuF_2xjrnzuFNLZF-323" edge="1">
          <mxGeometry relative="1" as="geometry">
            <Array as="points">
              <mxPoint x="232" y="916.6666666666661"/>
              <mxPoint x="308" y="988.3333333333328"/>
            </Array>
          </mxGeometry>
        </mxCell>
        <mxCell id="w01vSuF_2xjrnzuFNLZF-452" value="child of" style="curved=1;endArrow=blockThin;endFill=1;fontSize=11;noEdgeStyle=1;orthogonal=1;" parent="1" source="w01vSuF_2xjrnzuFNLZF-326" target="w01vSuF_2xjrnzuFNLZF-325" edge="1">
          <mxGeometry relative="1" as="geometry">
            <Array as="points">
              <mxPoint x="232" y="988.3333333333328"/>
              <mxPoint x="308" y="1059.9999999999995"/>
            </Array>
          </mxGeometry>
        </mxCell>
        <mxCell id="w01vSuF_2xjrnzuFNLZF-453" value="child of" style="curved=1;endArrow=blockThin;endFill=1;fontSize=11;noEdgeStyle=1;orthogonal=1;" parent="1" source="w01vSuF_2xjrnzuFNLZF-328" target="w01vSuF_2xjrnzuFNLZF-327" edge="1">
          <mxGeometry relative="1" as="geometry">
            <Array as="points">
              <mxPoint x="232" y="1059.9999999999995"/>
              <mxPoint x="308" y="1131.666666666666"/>
            </Array>
          </mxGeometry>
        </mxCell>
        <mxCell id="w01vSuF_2xjrnzuFNLZF-454" value="child of" style="curved=1;endArrow=blockThin;endFill=1;fontSize=11;noEdgeStyle=1;orthogonal=1;" parent="1" source="w01vSuF_2xjrnzuFNLZF-330" target="w01vSuF_2xjrnzuFNLZF-329" edge="1">
          <mxGeometry relative="1" as="geometry">
            <Array as="points">
              <mxPoint x="232" y="1131.666666666666"/>
              <mxPoint x="308" y="1203.3333333333326"/>
            </Array>
          </mxGeometry>
        </mxCell>
        <mxCell id="w01vSuF_2xjrnzuFNLZF-455" value="child of" style="curved=1;endArrow=blockThin;endFill=1;fontSize=11;noEdgeStyle=1;orthogonal=1;" parent="1" source="w01vSuF_2xjrnzuFNLZF-332" target="w01vSuF_2xjrnzuFNLZF-331" edge="1">
          <mxGeometry relative="1" as="geometry">
            <Array as="points">
              <mxPoint x="232" y="1203.3333333333326"/>
              <mxPoint x="308" y="1274.999999999999"/>
            </Array>
          </mxGeometry>
        </mxCell>
        <mxCell id="w01vSuF_2xjrnzuFNLZF-456" value="child of" style="curved=1;endArrow=blockThin;endFill=1;fontSize=11;noEdgeStyle=1;orthogonal=1;" parent="1" source="w01vSuF_2xjrnzuFNLZF-334" target="w01vSuF_2xjrnzuFNLZF-333" edge="1">
          <mxGeometry relative="1" as="geometry">
            <Array as="points">
              <mxPoint x="232" y="1274.999999999999"/>
              <mxPoint x="308" y="1346.6666666666656"/>
            </Array>
          </mxGeometry>
        </mxCell>
        <mxCell id="w01vSuF_2xjrnzuFNLZF-457" value="child of" style="curved=1;endArrow=blockThin;endFill=1;fontSize=11;noEdgeStyle=1;orthogonal=1;" parent="1" source="w01vSuF_2xjrnzuFNLZF-336" target="w01vSuF_2xjrnzuFNLZF-335" edge="1">
          <mxGeometry relative="1" as="geometry">
            <Array as="points">
              <mxPoint x="232" y="1346.6666666666656"/>
              <mxPoint x="308" y="1418.3333333333321"/>
            </Array>
          </mxGeometry>
        </mxCell>
        <mxCell id="w01vSuF_2xjrnzuFNLZF-458" value="child of" style="curved=1;endArrow=blockThin;endFill=1;fontSize=11;noEdgeStyle=1;orthogonal=1;" parent="1" source="w01vSuF_2xjrnzuFNLZF-338" target="w01vSuF_2xjrnzuFNLZF-337" edge="1">
          <mxGeometry relative="1" as="geometry">
            <Array as="points">
              <mxPoint x="232" y="2062.0735677083317"/>
              <mxPoint x="308" y="2062.0735677083317"/>
            </Array>
          </mxGeometry>
        </mxCell>
      </root>
    </mxGraphModel>
  </diagram>
</mxfile>
